<?xml version="1.0" encoding="UTF-8" standalone="no"?>
<svg
   xmlns:dc="http://purl.org/dc/elements/1.1/"
   xmlns:cc="http://creativecommons.org/ns#"
   xmlns:rdf="http://www.w3.org/1999/02/22-rdf-syntax-ns#"
   xmlns:svg="http://www.w3.org/2000/svg"
   xmlns="http://www.w3.org/2000/svg"
   xmlns:sodipodi="http://sodipodi.sourceforge.net/DTD/sodipodi-0.dtd"
   xmlns:inkscape="http://www.inkscape.org/namespaces/inkscape"
   width="210mm"
   height="297mm"
   viewBox="0 0 210 297"
   version="1.1"
   id="svg857"
   inkscape:version="1.0.1 (3bc2e813f5, 2020-09-07)"
   sodipodi:docname="drawing.svg">
  <defs
     id="defs851" />
  <sodipodi:namedview
     id="base"
     pagecolor="#ffffff"
     bordercolor="#666666"
     borderopacity="1.0"
     inkscape:pageopacity="0.0"
     inkscape:pageshadow="2"
     inkscape:zoom="0.35"
     inkscape:cx="400"
     inkscape:cy="560"
     inkscape:document-units="mm"
     inkscape:current-layer="layer1"
     inkscape:document-rotation="0"
     showgrid="false"
     inkscape:window-width="1366"
     inkscape:window-height="705"
     inkscape:window-x="-8"
     inkscape:window-y="-8"
     inkscape:window-maximized="1" />
  <metadata
     id="metadata854">
    <rdf:RDF>
      <cc:Work
         rdf:about="">
        <dc:format>image/svg+xml</dc:format>
        <dc:type
           rdf:resource="http://purl.org/dc/dcmitype/StillImage" />
        <dc:title></dc:title>
      </cc:Work>
    </rdf:RDF>
  </metadata>
  <g
     inkscape:label="Layer 1"
     inkscape:groupmode="layer"
     id="layer1">
    <path
       style="fill:#000000;stroke:#ffb3ec;stroke-width:0;stroke-miterlimit:4;stroke-dasharray:none"
       d="m 95.663486,98.554418 c -0.08877,-0.04937 -0.306665,-0.0911 -0.484213,-0.09266 -0.248285,-0.0024 -0.28555,-0.02359 -0.161405,-0.09265 0.125326,-0.06974 0.09384,-0.09013 -0.14085,-0.09124 -0.203113,-0.0012 -0.276744,-0.03695 -0.224461,-0.109825 0.05143,-0.07166 0.02035,-0.08942 -0.09172,-0.05239 -0.203854,0.06736 -1.286839,-0.539745 -2.502076,-1.402619 -1.250915,-0.88821 -1.900542,-1.488614 -2.619357,-2.420875 -0.216115,-0.280285 -0.418441,-0.530462 -0.449603,-0.555946 -0.144526,-0.118156 -0.753499,-1.204876 -0.676579,-1.207366 0.04783,-0.0012 0.0067,-0.04316 -0.09129,-0.09244 -0.105333,-0.05298 -0.156542,-0.161266 -0.125127,-0.264698 0.02922,-0.09629 5.34e-4,-0.203088 -0.06378,-0.237335 -0.06431,-0.03423 -0.11698,-0.164033 -0.11698,-0.288426 0,-0.1244 -0.04276,-0.226177 -0.09505,-0.226177 -0.05223,0 -0.121316,-0.08649 -0.153418,-0.19219 -0.03209,-0.105709 -0.158803,-0.214812 -0.281554,-0.242455 -0.122758,-0.02761 -0.223201,-0.08053 -0.223201,-0.117517 0,-0.03701 -0.169476,-0.145851 -0.376612,-0.241905 -0.207136,-0.09606 -0.376613,-0.199084 -0.376613,-0.228944 0,-0.02986 -0.169477,-0.111556 -0.376613,-0.18154 -0.207136,-0.06998 -0.376614,-0.151676 -0.376614,-0.181536 0,-0.02986 -0.169476,-0.132884 -0.376612,-0.228943 -0.207138,-0.09605 -0.376616,-0.209781 -0.376616,-0.252714 0,-0.04293 -0.04625,-0.07807 -0.102823,-0.07807 -0.09889,0 -0.78056,-0.360285 -1.049374,-0.554639 -0.07148,-0.05168 -0.176395,-0.09396 -0.23314,-0.09396 -0.05675,0 -0.119318,-0.03128 -0.139049,-0.06949 -0.05157,-0.09995 -0.925162,-0.579113 -1.055791,-0.579113 -0.06046,0 -0.109911,-0.03512 -0.109911,-0.07807 0,-0.04293 -0.181585,-0.1576 -0.403516,-0.254812 -0.221931,-0.0972 -0.476149,-0.242248 -0.564919,-0.322313 -0.08877,-0.08007 -0.318775,-0.224569 -0.511118,-0.321113 -0.192343,-0.09655 -0.349712,-0.208249 -0.349712,-0.248225 0,-0.03997 -0.07906,-0.07268 -0.175687,-0.07268 -0.09662,0 -0.253998,-0.07742 -0.34971,-0.172057 -0.09571,-0.09463 -0.282977,-0.201685 -0.416136,-0.23789 -0.13316,-0.03624 -0.242108,-0.104715 -0.242108,-0.152243 0,-0.04754 -0.05062,-0.08642 -0.112495,-0.08642 -0.06187,0 -0.23355,-0.104237 -0.381504,-0.23164 -0.147956,-0.127404 -0.328752,-0.231647 -0.401771,-0.231647 -0.07302,0 -0.202559,-0.08339 -0.287872,-0.185319 -0.08531,-0.101919 -0.241267,-0.185313 -0.346566,-0.185313 -0.105299,0 -0.191452,-0.04062 -0.191452,-0.09028 0,-0.04967 -0.157371,-0.160065 -0.349714,-0.245352 -0.192341,-0.0853 -0.428023,-0.232308 -0.523738,-0.326688 -0.09571,-0.09438 -0.228875,-0.171602 -0.29591,-0.171602 -0.06704,0 -0.121884,-0.04092 -0.121884,-0.09089 0,-0.04996 -0.117831,-0.116358 -0.261846,-0.147483 -0.179856,-0.03885 -0.241873,-0.101404 -0.198061,-0.199723 0.04236,-0.09504 0.0136,-0.128727 -0.08554,-0.100269 -0.08213,0.02359 -0.244243,-0.03329 -0.360248,-0.126345 -0.335647,-0.269269 -0.938669,-0.222026 -1.311118,0.102717 -0.44394,0.387076 -0.580879,0.54049 -0.580879,0.650746 0,0.0531 -0.037,0.09657 -0.08222,0.09657 -0.04522,0 -0.169483,0.177207 -0.276137,0.393793 -0.106653,0.216587 -0.250949,0.508455 -0.320659,0.648606 -0.06971,0.140145 -0.163346,0.254806 -0.20808,0.254806 -0.04474,0 -0.08134,0.0834 -0.08134,0.185314 0,0.101931 -0.04785,0.185319 -0.106333,0.185319 -0.05848,0 -0.137163,0.166026 -0.174844,0.368947 -0.04123,0.222009 -0.113298,0.345113 -0.180964,0.309104 -0.06942,-0.03696 -0.08616,-0.0012 -0.04374,0.09434 0.04486,0.100678 0.01387,0.154183 -0.08932,0.154183 -0.0978,0 -0.158029,0.09037 -0.158029,0.237115 0,0.134481 -0.04658,0.212329 -0.107604,0.17985 -0.05918,-0.03151 -0.109143,0.01815 -0.111026,0.110351 -0.0068,0.331377 -0.264122,0.491922 -0.788568,0.491922 -0.275078,0 -0.499254,-0.04346 -0.499254,-0.09672 0,-0.05321 -0.06053,-0.08995 -0.134506,-0.08167 -0.287146,0.03211 -0.413354,-0.01094 -0.33841,-0.115317 0.05204,-0.07251 0.01954,-0.08915 -0.09814,-0.05026 -0.09677,0.03199 -0.244212,-4.61e-4 -0.327652,-0.0725 -0.08344,-0.07185 -0.181686,-0.104828 -0.218321,-0.07328 -0.03664,0.03157 -0.06661,0.0063 -0.06661,-0.05623 0,-0.06246 -0.04842,-0.0878 -0.107603,-0.05629 -0.05918,0.03151 -0.107603,-0.0077 -0.107603,-0.08719 0,-0.07945 -0.07263,-0.144456 -0.161407,-0.144456 -0.08877,0 -0.161405,-0.04169 -0.161405,-0.09266 0,-0.05097 -0.09684,-0.09266 -0.215208,-0.09266 -0.118364,0 -0.215206,-0.03837 -0.215206,-0.08529 0,-0.04689 -0.157372,-0.114637 -0.349714,-0.150504 -0.192341,-0.03583 -0.482759,-0.146195 -0.64537,-0.245163 -0.34495,-0.209952 -0.964379,-0.951217 -0.865801,-1.036108 0.03712,-0.03199 0.01991,-0.05812 -0.03824,-0.05812 -0.150691,0 -0.587501,-0.698835 -0.49302,-0.788763 0.04326,-0.04115 0.02506,-0.04854 -0.04046,-0.01638 -0.06924,0.03394 -0.247767,-0.144077 -0.426363,-0.425267 -0.254149,-0.400137 -0.302144,-0.575801 -0.277733,-1.016518 0.01828,-0.33007 -0.01397,-0.532779 -0.08475,-0.532779 -0.06284,0 -0.114264,-0.08529 -0.114264,-0.189529 0,-0.104237 -0.118782,-0.291809 -0.263959,-0.416826 -0.234467,-0.201895 -0.256859,-0.281661 -0.200419,-0.713885 0.03495,-0.267624 0.109225,-0.536623 0.165062,-0.597778 0.05584,-0.06115 0.08673,-0.259037 0.06865,-0.439747 l -0.03287,-0.328555 2.848764,-0.02671 c 2.251209,-0.02112 2.910656,-0.0552 3.143833,-0.162531 0.16229,-0.0747 0.29545,-0.167096 0.295911,-0.205318 4.25e-4,-0.03821 0.0657,-0.06949 0.144971,-0.06949 0.07927,0 0.200554,-0.106631 0.269513,-0.236956 0.130393,-0.246433 0.06452,-0.689625 -0.102499,-0.689625 -0.05276,0 -0.09594,-0.08339 -0.09594,-0.185311 0,-0.101927 -0.04842,-0.185315 -0.107603,-0.185315 -0.05918,0 -0.107604,-0.06255 -0.107604,-0.138989 0,-0.07644 -0.04842,-0.138989 -0.107604,-0.138989 -0.05918,0 -0.107604,-0.07542 -0.107604,-0.167605 0,-0.09218 -0.07109,-0.24854 -0.157984,-0.347463 -0.08689,-0.09892 -0.159522,-0.252833 -0.161405,-0.342016 -0.0019,-0.08918 -0.05184,-0.162147 -0.111025,-0.162147 -0.05918,0 -0.107604,-0.06255 -0.107604,-0.13899 0,-0.07644 -0.04842,-0.138984 -0.107604,-0.138984 -0.05918,0 -0.107604,-0.07542 -0.107604,-0.167609 0,-0.09218 -0.07109,-0.24854 -0.157984,-0.347463 -0.08689,-0.09892 -0.159523,-0.252828 -0.161405,-0.342016 -0.0019,-0.08918 -0.05184,-0.162147 -0.111026,-0.162147 -0.05918,0 -0.107603,-0.06255 -0.107603,-0.138989 0,-0.07644 -0.07549,-0.138984 -0.167756,-0.138984 -0.09227,0 -0.136668,-0.04329 -0.09867,-0.09626 0.07762,-0.108146 -0.280636,-0.922091 -0.406095,-0.922632 -0.04439,-2.44e-4 -0.0807,-0.08374 -0.0807,-0.185662 0,-0.101927 -0.03776,-0.185315 -0.08392,-0.185315 -0.04615,0 -0.177868,-0.208484 -0.292697,-0.463289 -0.114829,-0.25481 -0.266221,-0.463289 -0.336426,-0.463289 -0.07467,0 -0.104286,-0.07691 -0.07136,-0.185316 0.0388,-0.127765 0.0033,-0.185315 -0.114302,-0.185315 -0.0968,0 -0.14708,-0.05273 -0.116248,-0.121916 0.02988,-0.06705 -0.01976,-0.244261 -0.110318,-0.393795 -0.09056,-0.149537 -0.164946,-0.344848 -0.16531,-0.434035 -4.26e-4,-0.08918 -0.04005,-0.162148 -0.08818,-0.162148 -0.04814,0 -0.154017,-0.145938 -0.235292,-0.324304 -0.08127,-0.178367 -0.187155,-0.3243 -0.235292,-0.3243 -0.04813,0 -0.08752,-0.08311 -0.08752,-0.184683 0,-0.22837 -0.343535,-0.927211 -0.455798,-0.927211 -0.04522,0 -0.08222,-0.08339 -0.08222,-0.185315 0,-0.101927 -0.0681,-0.185316 -0.151332,-0.185316 -0.0936,0 -0.131711,-0.06461 -0.0999,-0.169365 0.05525,-0.181933 -0.283498,-0.942528 -0.419777,-0.942528 -0.04522,0 -0.08222,-0.104242 -0.08222,-0.231647 0,-0.127405 -0.04292,-0.231642 -0.09539,-0.231642 -0.05246,0 -0.128063,-0.187635 -0.167999,-0.416963 -0.03994,-0.229327 -0.118068,-0.416957 -0.173624,-0.416957 -0.05556,0 -0.10101,-0.101779 -0.10101,-0.226176 0,-0.124397 -0.04842,-0.251945 -0.107604,-0.283444 -0.05918,-0.03152 -0.107604,-0.159043 -0.107604,-0.28344 0,-0.124397 -0.04521,-0.226176 -0.100458,-0.226176 -0.05525,0 -0.115777,-0.114522 -0.134503,-0.254495 -0.03821,-0.285593 -0.496191,-0.529083 -1.194394,-0.635002 -0.223915,-0.03396 -0.383591,-0.08202 -0.354836,-0.106779 0.07087,-0.06103 -0.216282,-0.300933 -0.360198,-0.300933 -0.06341,0 -0.11529,-0.03891 -0.11529,-0.08642 0,-0.04753 -0.09437,-0.112203 -0.209704,-0.143725 -0.115335,-0.03152 -0.237862,-0.133717 -0.272279,-0.227096 -0.03442,-0.09338 -0.206372,-0.299348 -0.382118,-0.457707 -0.175746,-0.158358 -0.319539,-0.325201 -0.319539,-0.37077 0,-0.04556 -0.108949,-0.146289 -0.242108,-0.223842 -0.613509,-0.357291 -2.01757,-1.715636 -2.01757,-1.951876 0,-0.02532 -0.160511,-0.351372 -0.35669,-0.724568 -0.196181,-0.373195 -0.444316,-0.928712 -0.551409,-1.234483 -0.107096,-0.305772 -0.237115,-0.628348 -0.288933,-0.716838 -0.05182,-0.08849 -0.09421,-0.263243 -0.09421,-0.388328 0,-0.12509 -0.0533,-0.255799 -0.118445,-0.290467 -0.06681,-0.03558 -0.0918,-0.177748 -0.05733,-0.326186 0.03907,-0.168205 0.0042,-0.312207 -0.09676,-0.399108 -0.08684,-0.07477 -0.157883,-0.202939 -0.157883,-0.284816 0,-0.120659 0.04119,-0.129882 0.217431,-0.04866 0.119586,0.05511 0.264852,0.07497 0.32281,0.04413 0.05796,-0.03082 0.105381,-0.01192 0.105381,0.04205 0,0.05397 0.07263,0.09813 0.161405,0.09813 0.08877,0 0.161406,0.0335 0.161406,0.07445 0,0.09742 1.026825,0.574153 1.236654,0.574153 0.08921,0 0.162195,0.04168 0.162195,0.09266 0,0.05096 0.07263,0.09266 0.161406,0.09266 0.08877,0 0.161405,0.03756 0.161405,0.08348 0,0.04593 0.217716,0.160581 0.483813,0.25481 0.266098,0.09423 0.483996,0.202601 0.484217,0.240823 2.84e-4,0.03821 0.09725,0.06949 0.215611,0.06949 0.118365,0 0.215207,0.04168 0.215207,0.09266 0,0.05096 0.07263,0.09266 0.161406,0.09266 0.08877,0 0.161406,0.03539 0.161406,0.07869 0,0.04329 0.217896,0.156068 0.484217,0.250638 0.266319,0.09457 0.484217,0.196548 0.484217,0.226615 0,0.03008 0.217897,0.13204 0.484217,0.22661 0.266318,0.09457 0.484215,0.207361 0.484215,0.250642 0,0.04329 0.07263,0.07869 0.161407,0.07869 0.08877,0 0.161405,0.04168 0.161405,0.09266 0,0.05096 0.09684,0.09266 0.215208,0.09266 0.118364,0 0.215389,0.03128 0.215611,0.06949 2.84e-4,0.03821 0.218119,0.146594 0.484216,0.240823 0.266099,0.09423 0.483814,0.208895 0.483814,0.25481 0,0.04593 0.07263,0.08348 0.161406,0.08348 0.08877,0 0.161587,0.03128 0.161808,0.06949 2.85e-4,0.03822 0.218121,0.146595 0.484218,0.240824 0.266097,0.09423 0.483814,0.208894 0.483814,0.25481 0,0.04593 0.07263,0.08348 0.161405,0.08348 0.08877,0 0.161405,0.04168 0.161405,0.09266 0,0.05096 0.09684,0.09266 0.215207,0.09266 0.118365,0 0.215208,0.04089 0.215208,0.09089 0,0.04999 0.121054,0.117054 0.26901,0.149029 0.147954,0.03198 0.269009,0.10018 0.269009,0.151557 0,0.05138 0.09684,0.07162 0.215208,0.04496 0.118364,-0.02666 0.215206,-0.01067 0.215206,0.03553 0,0.125174 0.410118,0.454616 0.565938,0.454616 0.07454,0 0.198946,0.08745 0.276464,0.19434 0.07752,0.106885 0.168017,0.171024 0.201107,0.142533 0.10375,-0.08934 0.999174,0.602023 1.720702,1.328569 0.380885,0.383532 0.79845,0.802126 0.927923,0.930214 0.129472,0.128085 0.295625,0.336563 0.369231,0.46329 0.131107,0.225722 0.201488,0.332002 0.813124,1.227848 0.165732,0.242741 0.2672,0.488901 0.225483,0.547024 -0.04666,0.06501 -0.02804,0.08024 0.04839,0.03955 0.108683,-0.05784 0.135662,-0.01756 0.120386,0.179775 -0.0021,0.02731 0.07097,0.114057 0.162395,0.192787 0.09143,0.07873 0.138725,0.181481 0.105096,0.228334 -0.03363,0.04685 -0.01139,0.08519 0.04943,0.08519 0.06081,0 0.08286,0.06219 0.04899,0.138203 -0.0346,0.07765 0.01106,0.162213 0.104185,0.192987 0.0982,0.03244 0.139163,0.114499 0.100483,0.201293 -0.04322,0.09698 -0.02273,0.12387 0.0606,0.07952 0.08564,-0.04556 0.125891,0.02361 0.125891,0.216445 0,0.155896 0.04303,0.283444 0.09563,0.283444 0.0526,0 0.127422,0.145934 0.166281,0.324301 0.03886,0.178366 0.116881,0.324304 0.173382,0.324304 0.0565,0 0.102726,0.08339 0.102726,0.185311 0,0.101927 0.04842,0.18532 0.107605,0.18532 0.05918,0 0.107604,0.104238 0.107604,0.231643 0,0.127405 0.04303,0.231642 0.09563,0.231642 0.0526,0 0.127422,0.145938 0.166282,0.324304 0.03886,0.178366 0.116881,0.3243 0.173381,0.3243 0.0565,0 0.102727,0.08339 0.102727,0.18532 0,0.101922 0.04842,0.185316 0.107603,0.185316 0.05918,0 0.107605,0.06254 0.107605,0.138984 0,0.07644 0.04842,0.138984 0.107604,0.138984 0.05918,0 0.107604,0.08226 0.107604,0.182784 0,0.205263 0.536516,1.236471 0.668193,1.284299 0.04677,0.017 0.08503,0.111371 0.08503,0.20974 0,0.09837 0.04608,0.251252 0.10239,0.339742 0.05632,0.08849 0.187008,0.327678 0.290425,0.531527 0.10342,0.203849 0.275242,0.438064 0.381828,0.520488 0.106584,0.08242 0.193791,0.197786 0.193791,0.256367 0,0.194275 0.996218,0.937311 1.256694,0.937311 0.137367,0 0.249758,0.04168 0.249758,0.09266 0,0.115502 3.405465,0.127696 3.488155,0.01248 0.08711,-0.121367 0.814527,-0.200199 1.2694,-0.137566 0.238088,0.0328 0.37536,0.09479 0.334836,0.151243 -0.04282,0.05969 0.01862,0.07602 0.163367,0.04344 0.155297,-0.03498 0.23203,-0.0097 0.23203,0.0763 0,0.0707 0.121056,0.154708 0.269012,0.186683 0.147956,0.03198 0.269007,0.09531 0.269007,0.140754 0,0.04542 0.09685,0.08261 0.215207,0.08261 0.118368,0 0.215208,0.04168 0.215208,0.09266 0,0.05096 0.07264,0.09266 0.161413,0.09266 0.08877,0 0.161398,0.0365 0.161398,0.08107 0,0.04459 0.146194,0.106252 0.32487,0.137025 0.17867,0.03078 0.429909,0.140223 0.558304,0.243226 0.128395,0.103004 0.296951,0.18728 0.374565,0.18728 0.07761,0 0.14111,0.04417 0.14111,0.09812 0,0.05397 0.04843,0.07236 0.107608,0.04084 0.185921,-0.09895 0.116847,0.195971 -0.0807,0.344558 -0.219065,0.164767 -0.962943,0.388249 -1.239767,0.372465 -0.104853,-0.006 -0.162519,0.02832 -0.128155,0.07618 0.03436,0.04788 -0.0013,0.08903 -0.07838,0.09144 -0.651143,0.02029 -1.222334,0.102319 -1.252356,0.179876 -0.01996,0.05154 -0.11943,0.09371 -0.221062,0.09371 -0.233339,0 -0.763754,0.20883 -0.76487,0.301137 -4.29e-4,0.03821 -0.09676,0.06949 -0.214,0.06949 -0.137627,0 -0.23708,0.08208 -0.280673,0.231643 -0.03713,0.127405 -0.110689,0.231646 -0.163458,0.231646 -0.05275,0 -0.09594,0.06255 -0.09594,0.138984 0,0.07644 0.0484,0.13899 0.107604,0.13899 0.05919,0 0.107604,0.07693 0.107604,0.170954 0,0.197131 0.321544,0.47765 0.547511,0.47765 0.08468,0 0.214429,0.08339 0.288351,0.185316 0.07392,0.101922 0.184519,0.185315 0.245782,0.185315 0.06126,0 0.241941,0.104242 0.401503,0.231643 0.159563,0.127405 0.351139,0.231646 0.42572,0.231646 0.07458,0 0.135604,0.03512 0.135604,0.07807 0,0.04293 0.169482,0.156658 0.376618,0.252717 0.207138,0.09605 0.376608,0.206861 0.376608,0.246234 0,0.03937 0.06671,0.07159 0.148228,0.07159 0.08154,0 0.2127,0.06689 0.291494,0.148636 0.07879,0.08176 0.242094,0.185893 0.36289,0.231428 0.331082,0.124789 0.627052,0.296432 0.822553,0.477021 0.09655,0.08918 0.218784,0.162153 0.271627,0.162153 0.05284,0 0.22663,0.104237 0.386193,0.23164 0.159563,0.127404 0.3199,0.231646 0.356298,0.231646 0.03636,0 0.139263,0.06293 0.228585,0.139838 0.08931,0.07691 0.206909,0.116146 0.261319,0.08719 0.05444,-0.02897 0.09893,-0.006 0.09893,0.05097 0,0.057 0.04296,0.08074 0.09541,0.0528 0.0525,-0.02791 0.155247,0.01129 0.228377,0.08719 0.07314,0.07588 0.101397,0.137969 0.06278,0.137969 -0.03856,0 0.253294,0.274455 0.648653,0.609906 0.695325,0.589969 1.22443,1.165687 1.22443,1.332298 0,0.04446 0.04416,0.09472 0.09818,0.111711 0.05397,0.01703 0.243047,0.272202 0.420102,0.567156 0.17809,0.29667 0.346766,0.482959 0.37754,0.416954 0.05791,-0.124193 0.114512,0.148447 0.07817,0.376445 -0.01094,0.06881 0.03169,0.09763 0.09485,0.06402 0.109169,-0.05812 0.164173,0.124381 0.120357,0.399268 -0.01114,0.07001 0.03249,0.09719 0.09917,0.06172 0.08164,-0.04346 0.09809,0.01922 0.0523,0.199184 -0.05117,0.201012 -0.03989,0.229985 0.04783,0.123584 0.09716,-0.117777 0.116801,-0.110705 0.128696,0.04636 0.0077,0.101925 0.004,0.262842 -0.0071,0.3576 -0.01261,0.102836 0.02575,0.147318 0.09522,0.110351 0.110877,-0.05901 0.166075,0.121384 0.121904,0.398435 -0.01094,0.06882 0.03169,0.09763 0.09486,0.06402 0.113892,-0.06061 0.15955,0.111504 0.118435,0.446423 -0.01308,0.106478 0.02495,0.14775 0.09952,0.108063 0.08318,-0.04429 0.09907,0.0099 0.05117,0.174321 -0.04877,0.167445 -0.02155,0.254393 0.0914,0.291721 0.10099,0.03335 0.139316,0.124328 0.102904,0.244228 -0.03582,0.117984 0.006,0.22192 0.109489,0.271771 0.106747,0.05144 0.145474,0.153271 0.10676,0.28074 -0.03749,0.123536 -0.01875,0.177662 0.04917,0.141546 0.06671,-0.03548 0.135681,0.12903 0.175495,0.418539 0.03609,0.262357 0.115319,0.519824 0.176074,0.572141 0.06077,0.05233 0.11047,0.191025 0.11047,0.308234 0,0.11721 0.04843,0.213116 0.1076,0.213116 0.05917,0 0.107608,0.101777 0.107608,0.22617 0,0.1244 0.04283,0.248971 0.09519,0.276832 0.05237,0.02785 0.127788,0.237831 0.167622,0.466598 0.03983,0.228772 0.118062,0.440226 0.173827,0.469896 0.05577,0.02968 0.101383,0.155744 0.101383,0.280138 0,0.124399 0.04843,0.226176 0.107601,0.226176 0.05917,0 0.107607,0.125086 0.107607,0.277973 0,0.152882 0.04296,0.277973 0.09539,0.277973 0.0525,0 0.127894,0.186662 0.167622,0.414801 0.03969,0.22814 0.117861,0.43908 0.173626,0.468756 0.05577,0.02968 0.101383,0.153278 0.101383,0.274662 0,0.12139 0.04837,0.246481 0.107608,0.277973 0.05917,0.03151 0.1076,0.159048 0.1076,0.283448 0,0.124394 0.03743,0.226177 0.08314,0.226177 0.0457,0 0.131931,0.181097 0.191566,0.402449 0.08128,0.30163 0.07506,0.429294 -0.02482,0.509613 -0.161504,0.129916 -0.461457,0.136308 -0.680328,0.01449 z"
       id="path849-7" />
    <path
       style="fill:#000000;stroke:#ffb3ec;stroke-width:0;stroke-miterlimit:4;stroke-dasharray:none"
       d="m 203.92533,87.235732 c -0.07,-0.0377 -0.24193,-0.0696 -0.382,-0.0708 -0.19587,-0.002 -0.22527,-0.018 -0.12733,-0.0707 0.0989,-0.0532 0.074,-0.0688 -0.11112,-0.0697 -0.16024,-7e-4 -0.21832,-0.0282 -0.17708,-0.0839 0.0406,-0.0547 0.0161,-0.0683 -0.0724,-0.04 -0.16082,0.0514 -1.01519,-0.41211 -1.97389,-1.07093 -0.98684,-0.67817 -1.49934,-1.13659 -2.06641,-1.84838 -0.17049,-0.21401 -0.3301,-0.40503 -0.35469,-0.42448 -0.11401,-0.0902 -0.59443,-0.91995 -0.53375,-0.92185 0.0378,-10e-4 0.005,-0.0329 -0.072,-0.0706 -0.0831,-0.0404 -0.1235,-0.12313 -0.0987,-0.20211 0.0231,-0.0735 4.2e-4,-0.15506 -0.0503,-0.1812 -0.0508,-0.0261 -0.0923,-0.12525 -0.0923,-0.22023 0,-0.095 -0.0337,-0.17269 -0.075,-0.17269 -0.0412,0 -0.0957,-0.066 -0.12104,-0.14674 -0.0253,-0.0807 -0.12527,-0.16401 -0.22212,-0.18511 -0.0968,-0.0211 -0.17607,-0.0615 -0.17607,-0.0897 0,-0.0282 -0.13371,-0.11136 -0.29712,-0.18469 -0.16341,-0.0734 -0.2971,-0.15201 -0.2971,-0.17481 0,-0.0228 -0.1337,-0.0852 -0.29712,-0.1386 -0.16341,-0.0534 -0.2971,-0.11582 -0.2971,-0.13861 0,-0.0228 -0.1337,-0.10146 -0.29711,-0.17481 -0.16341,-0.0733 -0.29711,-0.16017 -0.29711,-0.19295 0,-0.0328 -0.0365,-0.0596 -0.0811,-0.0596 -0.078,0 -0.61579,-0.2751 -0.82785,-0.42349 -0.0564,-0.0395 -0.13916,-0.0717 -0.18393,-0.0717 -0.0448,0 -0.0941,-0.0239 -0.10969,-0.0531 -0.0407,-0.0763 -0.72986,-0.44216 -0.83292,-0.44216 -0.0477,0 -0.0867,-0.0268 -0.0867,-0.0596 0,-0.0328 -0.14325,-0.12033 -0.31834,-0.19455 -0.17508,-0.0742 -0.37563,-0.18496 -0.44566,-0.24609 -0.07,-0.0611 -0.25148,-0.17147 -0.40322,-0.24518 -0.15174,-0.0737 -0.27589,-0.159 -0.27589,-0.18952 0,-0.0305 -0.0624,-0.0555 -0.1386,-0.0555 -0.0762,0 -0.20037,-0.0591 -0.27589,-0.13137 -0.0755,-0.0723 -0.22323,-0.15399 -0.32828,-0.18163 -0.10505,-0.0277 -0.191,-0.0799 -0.191,-0.11624 0,-0.0363 -0.0399,-0.066 -0.0888,-0.066 -0.0488,0 -0.18425,-0.0796 -0.30097,-0.17687 -0.11672,-0.0973 -0.25935,-0.17686 -0.31695,-0.17686 -0.0576,0 -0.1598,-0.0637 -0.22711,-0.14149 -0.0673,-0.0778 -0.19033,-0.14149 -0.2734,-0.14149 -0.0831,0 -0.15104,-0.031 -0.15104,-0.0689 0,-0.0379 -0.12415,-0.12221 -0.27589,-0.18733 -0.15173,-0.0651 -0.33767,-0.17737 -0.41317,-0.24943 -0.0755,-0.0721 -0.18056,-0.13102 -0.23345,-0.13102 -0.0529,0 -0.0961,-0.0312 -0.0961,-0.0694 0,-0.0382 -0.093,-0.0888 -0.20657,-0.11261 -0.14189,-0.0297 -0.19081,-0.0774 -0.15625,-0.15249 0.0334,-0.0726 0.0108,-0.0983 -0.0675,-0.0766 -0.0648,0.018 -0.19268,-0.0254 -0.2842,-0.0965 -0.26479,-0.2056 -0.74051,-0.16953 -1.03434,0.0784 -0.35022,0.29554 -0.45825,0.41267 -0.45825,0.49686 0,0.0405 -0.0292,0.0737 -0.0649,0.0737 -0.0357,0 -0.1337,0.1353 -0.21784,0.30067 -0.0841,0.16537 -0.19797,0.38822 -0.25297,0.49523 -0.055,0.107 -0.12886,0.19455 -0.16415,0.19455 -0.0353,0 -0.0642,0.0637 -0.0642,0.14149 0,0.0778 -0.0378,0.14149 -0.0839,0.14149 -0.0461,0 -0.10821,0.12677 -0.13794,0.2817 -0.0325,0.16951 -0.0894,0.2635 -0.14276,0.23601 -0.0548,-0.0282 -0.068,-7.1e-4 -0.0345,0.072 0.0354,0.0769 0.0109,0.11773 -0.0705,0.11773 -0.0772,0 -0.12466,0.069 -0.12466,0.18103 0,0.10268 -0.0368,0.16212 -0.0849,0.13732 -0.0467,-0.0241 -0.0861,0.0139 -0.0876,0.0843 -0.005,0.25301 -0.20836,0.37559 -0.6221,0.37559 -0.21701,0 -0.39386,-0.0332 -0.39386,-0.0738 0,-0.0406 -0.0478,-0.0687 -0.10611,-0.0624 -0.22653,0.0245 -0.3261,-0.008 -0.26697,-0.088 0.0411,-0.0554 0.0154,-0.0681 -0.0774,-0.0384 -0.0763,0.0244 -0.19266,-3.5e-4 -0.25848,-0.0553 -0.0658,-0.0549 -0.14334,-0.08 -0.17224,-0.056 -0.0289,0.0241 -0.0525,0.005 -0.0525,-0.0429 0,-0.0477 -0.0382,-0.067 -0.0849,-0.043 -0.0467,0.0241 -0.0849,-0.006 -0.0849,-0.0666 0,-0.0607 -0.0573,-0.11029 -0.12733,-0.11029 -0.07,0 -0.12734,-0.0318 -0.12734,-0.0708 0,-0.0389 -0.0764,-0.0707 -0.16978,-0.0707 -0.0934,0 -0.16977,-0.0293 -0.16977,-0.0651 0,-0.0358 -0.12415,-0.0875 -0.27589,-0.11492 -0.15174,-0.0274 -0.38085,-0.11161 -0.50913,-0.18718 -0.27213,-0.1603 -0.7608,-0.72628 -0.68303,-0.79109 0.0293,-0.0244 0.0157,-0.0444 -0.0302,-0.0444 -0.11887,0 -0.46347,-0.53358 -0.38894,-0.60224 0.0341,-0.0314 0.0198,-0.0371 -0.0319,-0.0125 -0.0546,0.026 -0.19547,-0.11001 -0.33636,-0.32471 -0.2005,-0.30551 -0.23837,-0.43963 -0.21911,-0.77613 0.0144,-0.25202 -0.011,-0.40679 -0.0669,-0.40679 -0.0496,0 -0.0901,-0.0651 -0.0901,-0.1447 0,-0.0796 -0.0937,-0.22281 -0.20824,-0.31826 -0.18497,-0.15415 -0.20263,-0.21505 -0.15811,-0.54507 0.0276,-0.20433 0.0862,-0.40972 0.13022,-0.45641 0.044,-0.0467 0.0684,-0.19778 0.0542,-0.33575 l -0.0259,-0.25087 2.24739,-0.0204 c 1.77597,-0.0161 2.29621,-0.0421 2.48016,-0.12409 0.12803,-0.057 0.23308,-0.12759 0.23345,-0.15677 3.3e-4,-0.0292 0.0518,-0.0531 0.11436,-0.0531 0.0625,0 0.15822,-0.0814 0.21262,-0.18092 0.10287,-0.18815 0.0509,-0.52654 -0.0809,-0.52654 -0.0416,0 -0.0757,-0.0637 -0.0757,-0.14149 0,-0.0778 -0.0382,-0.14149 -0.0849,-0.14149 -0.0467,0 -0.0849,-0.0478 -0.0849,-0.10612 0,-0.0584 -0.0382,-0.10612 -0.0849,-0.10612 -0.0467,0 -0.0849,-0.0576 -0.0849,-0.12797 0,-0.0704 -0.0561,-0.18977 -0.12463,-0.2653 -0.0686,-0.0755 -0.12585,-0.19304 -0.12734,-0.26113 -0.002,-0.0681 -0.0409,-0.12381 -0.0876,-0.12381 -0.0467,0 -0.0849,-0.0477 -0.0849,-0.10612 0,-0.0584 -0.0382,-0.10612 -0.0849,-0.10612 -0.0467,0 -0.0849,-0.0576 -0.0849,-0.12797 0,-0.0704 -0.0561,-0.18977 -0.12463,-0.2653 -0.0685,-0.0755 -0.12585,-0.19303 -0.12734,-0.26113 -0.002,-0.0681 -0.0409,-0.1238 -0.0876,-0.1238 -0.0467,0 -0.0849,-0.0478 -0.0849,-0.10613 0,-0.0584 -0.0596,-0.10611 -0.13234,-0.10611 -0.0728,0 -0.10782,-0.0331 -0.0778,-0.0735 0.0612,-0.0826 -0.22139,-0.70404 -0.32037,-0.70446 -0.035,-1.8e-4 -0.0637,-0.0639 -0.0637,-0.14175 0,-0.0778 -0.0298,-0.1415 -0.0662,-0.1415 -0.0364,0 -0.14032,-0.15917 -0.23091,-0.35373 -0.0906,-0.19455 -0.21002,-0.35373 -0.26541,-0.35373 -0.0589,0 -0.0823,-0.0587 -0.0563,-0.14149 0.0306,-0.0976 0.003,-0.14149 -0.0902,-0.14149 -0.0764,0 -0.11603,-0.0403 -0.0917,-0.0931 0.0236,-0.0512 -0.0156,-0.1865 -0.087,-0.30067 -0.0714,-0.11417 -0.13012,-0.2633 -0.13041,-0.33139 -3.3e-4,-0.0681 -0.0316,-0.12381 -0.0696,-0.12381 -0.038,0 -0.1215,-0.11142 -0.18562,-0.24761 -0.0641,-0.13618 -0.14765,-0.24761 -0.18562,-0.24761 -0.038,0 -0.0691,-0.0634 -0.0691,-0.14101 0,-0.17436 -0.27101,-0.70794 -0.35957,-0.70794 -0.0357,0 -0.0649,-0.0637 -0.0649,-0.14149 0,-0.0778 -0.0537,-0.1415 -0.11939,-0.1415 -0.0739,0 -0.10391,-0.0493 -0.0788,-0.12931 0.0436,-0.13891 -0.22365,-0.71964 -0.33116,-0.71964 -0.0357,0 -0.0649,-0.0796 -0.0649,-0.17687 0,-0.0973 -0.0339,-0.17686 -0.0752,-0.17686 -0.0414,0 -0.10103,-0.14326 -0.13254,-0.31836 -0.0315,-0.1751 -0.0931,-0.31836 -0.13697,-0.31836 -0.0438,0 -0.0797,-0.0777 -0.0797,-0.17269 0,-0.095 -0.0382,-0.19236 -0.0849,-0.21641 -0.0467,-0.0241 -0.0849,-0.12143 -0.0849,-0.21641 0,-0.095 -0.0357,-0.17269 -0.0793,-0.17269 -0.0436,0 -0.0913,-0.0874 -0.10611,-0.19432 -0.0301,-0.21805 -0.39144,-0.40396 -0.94225,-0.48483 -0.17665,-0.0259 -0.30261,-0.0626 -0.27993,-0.0815 0.0559,-0.0466 -0.17063,-0.22977 -0.28416,-0.22977 -0.05,0 -0.091,-0.0297 -0.091,-0.066 0,-0.0363 -0.0744,-0.0857 -0.16544,-0.10974 -0.091,-0.0241 -0.18765,-0.10209 -0.2148,-0.17339 -0.0271,-0.0713 -0.16281,-0.22856 -0.30145,-0.34947 -0.13865,-0.12091 -0.25209,-0.2483 -0.25209,-0.28309 0,-0.0348 -0.0859,-0.11169 -0.19099,-0.1709 -0.484,-0.27281 -1.59166,-1.30993 -1.59166,-1.49031 0,-0.0193 -0.12663,-0.26828 -0.2814,-0.55322 -0.15476,-0.28494 -0.35052,-0.70909 -0.435,-0.94255 -0.0845,-0.23346 -0.18706,-0.47976 -0.22794,-0.54732 -0.0409,-0.0676 -0.0743,-0.20099 -0.0743,-0.2965 0,-0.0955 -0.042,-0.19531 -0.0934,-0.22178 -0.0527,-0.0271 -0.0724,-0.13571 -0.0452,-0.24905 0.0308,-0.128424 0.003,-0.23837 -0.0763,-0.30472 -0.0685,-0.05709 -0.12455,-0.154952 -0.12455,-0.217466 0,-0.09213 0.0325,-0.09917 0.17153,-0.03715 0.0943,0.04208 0.20894,0.05724 0.25466,0.03369 0.0457,-0.02355 0.0831,-0.0091 0.0831,0.0321 0,0.04121 0.0573,0.07492 0.12734,0.07492 0.07,0 0.12733,0.02558 0.12733,0.05685 0,0.07438 0.81006,0.438376 0.97559,0.438376 0.0704,0 0.12796,0.0318 0.12796,0.0708 0,0.0389 0.0573,0.0707 0.12733,0.0707 0.07,0 0.12733,0.0287 0.12733,0.0637 0,0.0351 0.17176,0.12261 0.38168,0.19455 0.20993,0.072 0.38183,0.15469 0.382,0.18387 2.3e-4,0.0292 0.0767,0.0531 0.1701,0.0531 0.0934,0 0.16977,0.0318 0.16977,0.0707 0,0.0389 0.0573,0.0708 0.12734,0.0708 0.07,0 0.12733,0.027 0.12733,0.0601 0,0.0331 0.1719,0.11917 0.382,0.19137 0.2101,0.0722 0.38199,0.15007 0.38199,0.17302 0,0.023 0.1719,0.10082 0.38201,0.17303 0.21009,0.0722 0.38199,0.15832 0.38199,0.19137 0,0.0331 0.0573,0.0601 0.12734,0.0601 0.07,0 0.12733,0.0318 0.12733,0.0708 0,0.0389 0.0764,0.0707 0.16977,0.0707 0.0934,0 0.16992,0.0239 0.1701,0.0531 2.2e-4,0.0292 0.17207,0.11193 0.382,0.18387 0.20992,0.072 0.38168,0.1595 0.38168,0.19456 0,0.0351 0.0573,0.0637 0.12733,0.0637 0.07,0 0.12748,0.0239 0.12765,0.0531 2.2e-4,0.0292 0.17208,0.11192 0.382,0.18387 0.20992,0.072 0.38168,0.1595 0.38168,0.19455 0,0.0351 0.0573,0.0637 0.12733,0.0637 0.07,0 0.12734,0.0318 0.12734,0.0708 0,0.0389 0.0764,0.0707 0.16977,0.0707 0.0934,0 0.16978,0.0312 0.16978,0.0694 0,0.0382 0.0955,0.0894 0.21222,0.11379 0.11672,0.0244 0.21222,0.0765 0.21222,0.11572 0,0.0392 0.0764,0.0547 0.16978,0.0343 0.0934,-0.0204 0.16978,-0.008 0.16978,0.0271 0,0.0956 0.32354,0.3471 0.44646,0.3471 0.0588,0 0.15695,0.0668 0.21811,0.14838 0.0611,0.0816 0.13254,0.13058 0.15865,0.10883 0.0819,-0.0682 0.78825,0.45966 1.35746,1.01439 0.30048,0.29283 0.62989,0.61244 0.73204,0.71024 0.10214,0.0978 0.23321,0.25697 0.29128,0.35373 0.10343,0.17234 0.15896,0.25349 0.64147,0.93749 0.13075,0.18533 0.2108,0.37329 0.17789,0.41766 -0.0368,0.0496 -0.0221,0.0613 0.0382,0.0302 0.0857,-0.0442 0.10703,-0.0134 0.095,0.13727 -0.002,0.0208 0.056,0.0871 0.12812,0.14719 0.0721,0.0601 0.10944,0.13857 0.0829,0.17434 -0.0266,0.0358 -0.009,0.065 0.039,0.065 0.048,0 0.0654,0.0475 0.0386,0.10552 -0.0273,0.0593 0.009,0.12386 0.0822,0.14735 0.0775,0.0248 0.10979,0.0874 0.0793,0.15369 -0.0341,0.074 -0.018,0.0946 0.0478,0.0607 0.0676,-0.0348 0.0993,0.018 0.0993,0.16526 0,0.11903 0.0339,0.21642 0.0754,0.21642 0.0415,0 0.10052,0.11142 0.13117,0.24761 0.0307,0.13618 0.0922,0.24761 0.13678,0.24761 0.0446,0 0.081,0.0637 0.081,0.14149 0,0.0778 0.0382,0.14149 0.0849,0.14149 0.0467,0 0.0849,0.0796 0.0849,0.17687 0,0.0973 0.034,0.17686 0.0754,0.17686 0.0415,0 0.10052,0.11143 0.13117,0.24761 0.0307,0.13619 0.0922,0.24762 0.13678,0.24762 0.0446,0 0.0811,0.0637 0.0811,0.14149 0,0.0778 0.0382,0.14149 0.0849,0.14149 0.0467,0 0.0849,0.0478 0.0849,0.10612 0,0.0584 0.0382,0.10612 0.0849,0.10612 0.0467,0 0.0849,0.0628 0.0849,0.13956 0,0.15672 0.42326,0.94407 0.52714,0.98059 0.0369,0.013 0.0671,0.085 0.0671,0.16014 0,0.0751 0.0364,0.19183 0.0808,0.2594 0.0444,0.0676 0.14753,0.25019 0.22911,0.40583 0.0816,0.15564 0.21714,0.33447 0.30123,0.3974 0.0841,0.0629 0.15288,0.15102 0.15288,0.19574 0,0.14834 0.78591,0.71566 0.9914,0.71566 0.10837,0 0.19704,0.0318 0.19704,0.0708 0,0.0882 2.68657,0.0975 2.7518,0.01 0.0687,-0.0927 0.64258,-0.15286 1.00143,-0.10504 0.18783,0.025 0.29612,0.0724 0.26415,0.11548 -0.0338,0.0456 0.0147,0.058 0.12888,0.0332 0.12252,-0.0267 0.18305,-0.007 0.18305,0.0583 0,0.054 0.0955,0.11812 0.21222,0.14253 0.11672,0.0244 0.21222,0.0728 0.21222,0.10747 0,0.0347 0.0764,0.0631 0.16978,0.0631 0.0934,0 0.16978,0.0318 0.16978,0.0708 0,0.0389 0.0573,0.0707 0.12733,0.0707 0.07,0 0.12733,0.0279 0.12733,0.0619 0,0.034 0.11533,0.0811 0.25629,0.10463 0.14095,0.0235 0.33916,0.10706 0.44044,0.1857 0.1013,0.0786 0.23427,0.143 0.29549,0.143 0.0612,0 0.11133,0.0337 0.11133,0.0749 0,0.0412 0.0382,0.0553 0.0849,0.0312 0.14667,-0.0755 0.0922,0.14963 -0.0637,0.26308 -0.17282,0.1258 -0.75966,0.29643 -0.97805,0.28438 -0.0827,-0.005 -0.12821,0.0216 -0.1011,0.0582 0.0271,0.0366 -8.5e-4,0.068 -0.0618,0.0698 -0.51368,0.0155 -0.9643,0.0781 -0.98798,0.13734 -0.0157,0.0393 -0.0942,0.0716 -0.1744,0.0716 -0.18408,0 -0.60252,0.15945 -0.60341,0.22992 -3.3e-4,0.0292 -0.0763,0.0531 -0.16882,0.0531 -0.10857,0 -0.18703,0.0627 -0.22142,0.17686 -0.0293,0.0973 -0.0873,0.17687 -0.12895,0.17687 -0.0416,0 -0.0757,0.0478 -0.0757,0.10611 0,0.0584 0.0382,0.10612 0.0849,0.10612 0.0467,0 0.0849,0.0587 0.0849,0.13053 0,0.15052 0.25366,0.3647 0.43193,0.3647 0.0668,0 0.16916,0.0637 0.22748,0.14149 0.0583,0.0778 0.14557,0.14149 0.1939,0.14149 0.0483,0 0.19087,0.0796 0.31675,0.17687 0.12587,0.0973 0.277,0.17686 0.33585,0.17686 0.0588,0 0.10697,0.0268 0.10697,0.0596 0,0.0328 0.1337,0.11961 0.29711,0.19295 0.16341,0.0733 0.29711,0.15795 0.29711,0.18801 0,0.0301 0.0526,0.0547 0.11694,0.0547 0.0643,0 0.1678,0.0511 0.22995,0.11348 0.0622,0.0624 0.19099,0.14194 0.28629,0.1767 0.26119,0.0953 0.49468,0.22633 0.64891,0.36422 0.0762,0.0681 0.1726,0.1238 0.21428,0.1238 0.0417,0 0.17879,0.0796 0.30467,0.17687 0.12589,0.0973 0.25237,0.17686 0.28109,0.17686 0.0287,0 0.10986,0.0481 0.18032,0.10677 0.0705,0.0587 0.16324,0.0887 0.20616,0.0666 0.0429,-0.0221 0.0781,-0.005 0.0781,0.0389 0,0.0435 0.0339,0.0617 0.0753,0.0403 0.0414,-0.0213 0.12248,0.009 0.18018,0.0666 0.0577,0.0579 0.08,0.10534 0.0495,0.10534 -0.0304,0 0.19982,0.20955 0.51172,0.46568 0.54854,0.45045 0.96596,0.89002 0.96596,1.01724 0,0.0339 0.0348,0.0723 0.0774,0.0853 0.0426,0.013 0.19174,0.20783 0.33142,0.43303 0.14049,0.22652 0.27356,0.36876 0.29784,0.31836 0.0457,-0.0948 0.0903,0.11334 0.0617,0.28742 -0.009,0.0525 0.025,0.0745 0.0748,0.0489 0.0861,-0.0443 0.12951,0.095 0.0949,0.30485 -0.009,0.0535 0.0256,0.0742 0.0782,0.0471 0.0644,-0.0332 0.0774,0.0147 0.0413,0.15208 -0.0403,0.15348 -0.0315,0.17561 0.0378,0.0944 0.0767,-0.0899 0.0921,-0.0845 0.10152,0.0354 0.006,0.0778 0.003,0.20068 -0.006,0.27303 -0.01,0.0785 0.0203,0.11248 0.0751,0.0843 0.0875,-0.0451 0.13102,0.0927 0.0962,0.30421 -0.009,0.0525 0.025,0.0745 0.0748,0.0489 0.0898,-0.0463 0.12586,0.0851 0.0934,0.34086 -0.0103,0.0813 0.0197,0.11281 0.0785,0.0825 0.0656,-0.0338 0.0782,0.008 0.0403,0.1331 -0.0385,0.12785 -0.017,0.19423 0.0721,0.22274 0.0797,0.0255 0.10991,0.0949 0.0812,0.18647 -0.0283,0.0901 0.005,0.16944 0.0864,0.2075 0.0842,0.0393 0.11477,0.11703 0.0842,0.21435 -0.0296,0.0943 -0.0148,0.13565 0.0388,0.10807 0.0526,-0.0271 0.10704,0.0985 0.13845,0.31957 0.0285,0.20032 0.091,0.3969 0.13891,0.43684 0.0479,0.0399 0.0871,0.14585 0.0871,0.23534 0,0.0895 0.0382,0.16272 0.0849,0.16272 0.0467,0 0.0849,0.0777 0.0849,0.17269 0,0.095 0.0338,0.19009 0.0751,0.21137 0.0413,0.0213 0.10081,0.18159 0.13224,0.35625 0.0314,0.17467 0.0931,0.33612 0.13713,0.35878 0.044,0.0226 0.08,0.11891 0.08,0.21389 0,0.095 0.0382,0.17269 0.0849,0.17269 0.0467,0 0.0849,0.0955 0.0849,0.21224 0,0.11673 0.0339,0.21224 0.0752,0.21224 0.0414,0 0.1009,0.14251 0.13223,0.3167 0.0313,0.17419 0.093,0.33525 0.13698,0.35791 0.044,0.0226 0.08,0.11703 0.08,0.20971 0,0.0927 0.0382,0.18819 0.0849,0.21224 0.0467,0.0241 0.0849,0.12143 0.0849,0.21641 0,0.095 0.0295,0.17269 0.0656,0.17269 0.0361,0 0.10408,0.13828 0.15113,0.30728 0.0641,0.2303 0.0592,0.32778 -0.0196,0.38911 -0.12741,0.0992 -0.36404,0.10407 -0.53671,0.0111 z"
       id="path849-4" />
    <path
       style="fill:#000000;stroke:#ffb3ec;stroke-width:0;stroke-miterlimit:4;stroke-dasharray:none"
       d="m 158.11891,114.47384 c -0.0343,-0.0242 -0.11834,-0.0447 -0.18685,-0.0455 -0.0958,-0.001 -0.11019,-0.0116 -0.0623,-0.0455 0.0484,-0.0342 0.0362,-0.0442 -0.0543,-0.0448 -0.0784,-4.5e-4 -0.10679,-0.0181 -0.0866,-0.0539 0.0199,-0.0352 0.008,-0.0439 -0.0354,-0.0257 -0.0787,0.0331 -0.49657,-0.26483 -0.96551,-0.68821 -0.48271,-0.43581 -0.7334,-0.73041 -1.01078,-1.18783 -0.0834,-0.13753 -0.16147,-0.26028 -0.17349,-0.27278 -0.0558,-0.058 -0.29076,-0.59119 -0.26108,-0.59241 0.0185,-6.8e-4 0.003,-0.0212 -0.0352,-0.0454 -0.0406,-0.026 -0.0604,-0.0791 -0.0483,-0.12988 0.0113,-0.0472 2e-4,-0.0996 -0.0246,-0.11644 -0.0248,-0.0168 -0.0451,-0.0805 -0.0451,-0.14153 0,-0.061 -0.0165,-0.11097 -0.0367,-0.11097 -0.0202,0 -0.0468,-0.0424 -0.0592,-0.0943 -0.0124,-0.0519 -0.0613,-0.1054 -0.10865,-0.11896 -0.0474,-0.0136 -0.0861,-0.0395 -0.0861,-0.0577 0,-0.0182 -0.0654,-0.0716 -0.14533,-0.11869 -0.0799,-0.0471 -0.14533,-0.0977 -0.14533,-0.11234 0,-0.0146 -0.0654,-0.0547 -0.14533,-0.0891 -0.0799,-0.0343 -0.14533,-0.0744 -0.14533,-0.0891 0,-0.0147 -0.0654,-0.0652 -0.14532,-0.11233 -0.0799,-0.0471 -0.14534,-0.10293 -0.14534,-0.124 0,-0.0211 -0.0178,-0.0383 -0.0397,-0.0383 -0.0382,0 -0.30121,-0.17678 -0.40494,-0.27214 -0.0276,-0.0254 -0.0681,-0.0461 -0.09,-0.0461 -0.0219,0 -0.046,-0.0153 -0.0537,-0.0341 -0.0199,-0.049 -0.35701,-0.28415 -0.40742,-0.28415 -0.0233,0 -0.0424,-0.0172 -0.0424,-0.0383 0,-0.0211 -0.0701,-0.0773 -0.15571,-0.12503 -0.0856,-0.0477 -0.18374,-0.11886 -0.218,-0.15815 -0.0342,-0.0393 -0.12301,-0.11018 -0.19723,-0.15755 -0.0742,-0.0474 -0.13495,-0.10218 -0.13495,-0.1218 0,-0.0196 -0.0305,-0.0357 -0.0678,-0.0357 -0.0373,0 -0.098,-0.038 -0.13495,-0.0844 -0.0369,-0.0464 -0.1092,-0.099 -0.16058,-0.11672 -0.0514,-0.0178 -0.0934,-0.0514 -0.0934,-0.0747 0,-0.0233 -0.0195,-0.0424 -0.0434,-0.0424 -0.0239,0 -0.0901,-0.0512 -0.14722,-0.11366 -0.0571,-0.0625 -0.12686,-0.11366 -0.15503,-0.11366 -0.0282,0 -0.0782,-0.0409 -0.11109,-0.0909 -0.0329,-0.05 -0.0931,-0.0909 -0.13373,-0.0909 -0.0406,0 -0.0739,-0.0199 -0.0739,-0.0443 0,-0.0244 -0.0607,-0.0785 -0.13495,-0.12039 -0.0742,-0.0418 -0.16517,-0.11398 -0.2021,-0.16029 -0.0369,-0.0463 -0.0883,-0.0842 -0.11419,-0.0842 -0.0259,0 -0.047,-0.0201 -0.047,-0.0446 0,-0.0245 -0.0455,-0.0571 -0.10105,-0.0724 -0.0694,-0.0191 -0.0933,-0.0498 -0.0764,-0.098 0.0163,-0.0466 0.005,-0.0632 -0.033,-0.0492 -0.0317,0.0116 -0.0942,-0.0163 -0.13901,-0.062 -0.12952,-0.13212 -0.36222,-0.10894 -0.50594,0.0504 -0.17131,0.18993 -0.22415,0.2652 -0.22415,0.3193 0,0.0261 -0.0143,0.0474 -0.0317,0.0474 -0.0175,0 -0.0654,0.087 -0.10656,0.19322 -0.0412,0.10627 -0.0968,0.24948 -0.12374,0.31824 -0.0269,0.0688 -0.063,0.12503 -0.0803,0.12503 -0.0173,0 -0.0314,0.0409 -0.0314,0.0909 0,0.05 -0.0185,0.0909 -0.041,0.0909 -0.0226,0 -0.0529,0.0815 -0.0675,0.18103 -0.0159,0.10893 -0.0437,0.16934 -0.0698,0.15167 -0.0268,-0.0181 -0.0332,-4.6e-4 -0.0169,0.0463 0.0173,0.0494 0.005,0.0756 -0.0345,0.0756 -0.0377,0 -0.061,0.0443 -0.061,0.11634 0,0.066 -0.018,0.10418 -0.0415,0.0883 -0.0228,-0.0155 -0.0421,0.009 -0.0428,0.0541 -0.003,0.1626 -0.10192,0.24137 -0.3043,0.24137 -0.10615,0 -0.19265,-0.0213 -0.19265,-0.0475 0,-0.0261 -0.0234,-0.0441 -0.0519,-0.0401 -0.1108,0.0157 -0.15951,-0.005 -0.13058,-0.0566 0.0201,-0.0356 0.008,-0.0437 -0.0379,-0.0247 -0.0373,0.0157 -0.0942,-2.3e-4 -0.12643,-0.0356 -0.0322,-0.0353 -0.0701,-0.0514 -0.0842,-0.036 -0.0141,0.0155 -0.0257,0.003 -0.0257,-0.0276 0,-0.0306 -0.0187,-0.0431 -0.0415,-0.0276 -0.0228,0.0155 -0.0415,-0.004 -0.0415,-0.0428 0,-0.039 -0.028,-0.0709 -0.0623,-0.0709 -0.0343,0 -0.0623,-0.0204 -0.0623,-0.0455 0,-0.025 -0.0374,-0.0455 -0.083,-0.0455 -0.0457,0 -0.083,-0.0188 -0.083,-0.0418 0,-0.023 -0.0607,-0.0563 -0.13495,-0.0739 -0.0742,-0.0176 -0.18629,-0.0717 -0.24904,-0.12029 -0.13311,-0.10302 -0.37214,-0.46673 -0.3341,-0.50838 0.0143,-0.0157 0.008,-0.0285 -0.0148,-0.0285 -0.0582,0 -0.22671,-0.34289 -0.19025,-0.38702 0.0167,-0.0202 0.01,-0.0238 -0.0156,-0.008 -0.0267,0.0167 -0.0956,-0.0707 -0.16453,-0.20866 -0.0981,-0.19633 -0.11659,-0.28252 -0.10717,-0.49876 0.007,-0.16196 -0.005,-0.26142 -0.0327,-0.26142 -0.0242,0 -0.0441,-0.0418 -0.0441,-0.093 0,-0.0511 -0.0458,-0.14318 -0.10186,-0.20452 -0.0905,-0.0991 -0.0991,-0.1382 -0.0773,-0.35028 0.0135,-0.13131 0.0422,-0.2633 0.0637,-0.2933 0.0215,-0.03 0.0335,-0.1271 0.0265,-0.21577 l -0.0127,-0.16121 1.09929,-0.0131 c 0.86871,-0.0104 1.12318,-0.0271 1.21316,-0.0797 0.0626,-0.0367 0.11401,-0.082 0.11419,-0.10074 1.6e-4,-0.0188 0.0254,-0.0341 0.0559,-0.0341 0.0306,0 0.0774,-0.0523 0.104,-0.11627 0.0503,-0.12091 0.0249,-0.33837 -0.0395,-0.33837 -0.0204,0 -0.037,-0.0409 -0.037,-0.0909 0,-0.05 -0.0187,-0.0909 -0.0415,-0.0909 -0.0228,0 -0.0415,-0.0307 -0.0415,-0.0682 0,-0.0375 -0.0187,-0.0682 -0.0415,-0.0682 -0.0228,0 -0.0415,-0.037 -0.0415,-0.0822 0,-0.0452 -0.0274,-0.12195 -0.061,-0.17049 -0.0335,-0.0485 -0.0616,-0.12405 -0.0623,-0.16781 -8.3e-4,-0.0438 -0.02,-0.0796 -0.0428,-0.0796 -0.0228,0 -0.0415,-0.0307 -0.0415,-0.0682 0,-0.0375 -0.0187,-0.0682 -0.0415,-0.0682 -0.0228,0 -0.0415,-0.037 -0.0415,-0.0822 0,-0.0452 -0.0274,-0.12195 -0.061,-0.17049 -0.0335,-0.0485 -0.0616,-0.12405 -0.0623,-0.16781 -8.3e-4,-0.0438 -0.02,-0.0796 -0.0428,-0.0796 -0.0228,0 -0.0415,-0.0307 -0.0415,-0.0682 0,-0.0375 -0.0291,-0.0682 -0.0647,-0.0682 -0.0356,0 -0.0527,-0.0212 -0.0381,-0.0472 0.0299,-0.0531 -0.1083,-0.45244 -0.15671,-0.4527 -0.0171,-1.2e-4 -0.0311,-0.0411 -0.0311,-0.0911 0,-0.05 -0.0146,-0.0909 -0.0324,-0.0909 -0.0178,0 -0.0686,-0.10229 -0.11295,-0.22732 -0.0443,-0.12502 -0.10273,-0.22732 -0.12982,-0.22732 -0.0288,0 -0.0403,-0.0377 -0.0275,-0.0909 0.015,-0.0627 0.001,-0.0909 -0.0441,-0.0909 -0.0374,0 -0.0568,-0.0259 -0.0449,-0.0598 0.0115,-0.0329 -0.008,-0.11985 -0.0426,-0.19322 -0.0349,-0.0734 -0.0636,-0.1692 -0.0638,-0.21296 -1.6e-4,-0.0438 -0.0155,-0.0796 -0.034,-0.0796 -0.0186,0 -0.0594,-0.0716 -0.0908,-0.15912 -0.0314,-0.0875 -0.0722,-0.15913 -0.0908,-0.15913 -0.0186,0 -0.0338,-0.0408 -0.0338,-0.0906 0,-0.11206 -0.13257,-0.45495 -0.17589,-0.45495 -0.0174,0 -0.0317,-0.0409 -0.0317,-0.0909 0,-0.05 -0.0263,-0.0909 -0.0584,-0.0909 -0.0361,0 -0.0508,-0.0317 -0.0386,-0.0831 0.0213,-0.0893 -0.1094,-0.462459 -0.16199,-0.462459 -0.0174,0 -0.0317,-0.05115 -0.0317,-0.113658 0,-0.06251 -0.0166,-0.11366 -0.0368,-0.11366 -0.0203,0 -0.0494,-0.09206 -0.0648,-0.204585 -0.0154,-0.112522 -0.0456,-0.204587 -0.067,-0.204587 -0.0214,0 -0.039,-0.04994 -0.039,-0.110976 0,-0.06104 -0.0187,-0.12362 -0.0415,-0.139073 -0.0228,-0.01546 -0.0415,-0.07804 -0.0415,-0.139075 0,-0.06104 -0.0174,-0.110976 -0.0388,-0.110976 -0.0213,0 -0.0447,-0.05619 -0.0519,-0.124871 -0.0147,-0.140129 -0.19148,-0.259598 -0.4609,-0.311568 -0.0864,-0.01666 -0.14802,-0.04024 -0.13693,-0.05239 0.0273,-0.02994 -0.0835,-0.147656 -0.13899,-0.147656 -0.0245,0 -0.0445,-0.01909 -0.0445,-0.0424 0,-0.02332 -0.0364,-0.05506 -0.0809,-0.07052 -0.0445,-0.01546 -0.0918,-0.06561 -0.10507,-0.111427 -0.0133,-0.04582 -0.0796,-0.146879 -0.14745,-0.224577 -0.0678,-0.0777 -0.12331,-0.159566 -0.12331,-0.181923 0,-0.02235 -0.042,-0.07178 -0.0934,-0.10983 -0.23674,-0.175309 -0.77855,-0.841797 -0.77855,-0.957713 0,-0.01242 -0.0619,-0.172405 -0.13764,-0.355517 -0.0757,-0.183111 -0.17145,-0.455681 -0.21278,-0.605712 -0.0413,-0.15003 -0.0915,-0.308307 -0.1115,-0.351726 -0.02,-0.04342 -0.0363,-0.129161 -0.0363,-0.190537 0,-0.06138 -0.0206,-0.125511 -0.0457,-0.142522 -0.0258,-0.01745 -0.0354,-0.08721 -0.0221,-0.160047 0.0151,-0.08253 0.002,-0.153186 -0.0373,-0.195825 -0.0335,-0.03669 -0.0609,-0.09958 -0.0609,-0.139749 0,-0.0592 0.0159,-0.06373 0.0839,-0.02388 0.0461,0.02704 0.10221,0.03678 0.12457,0.02165 0.0224,-0.01514 0.0407,-0.0059 0.0407,0.02063 0,0.02648 0.028,0.04815 0.0623,0.04815 0.0343,0 0.0623,0.01644 0.0623,0.03653 0,0.0478 0.39624,0.281713 0.47721,0.281713 0.0344,0 0.0626,0.02046 0.0626,0.04546 0,0.02501 0.028,0.04546 0.0623,0.04546 0.0343,0 0.0623,0.01843 0.0623,0.04096 0,0.02253 0.084,0.07879 0.18669,0.125025 0.10269,0.04624 0.18677,0.09941 0.18686,0.118162 1.1e-4,0.01875 0.0375,0.0341 0.0832,0.0341 0.0457,0 0.083,0.02046 0.083,0.04546 0,0.02501 0.028,0.04546 0.0623,0.04546 0.0342,0 0.0623,0.01738 0.0623,0.03861 0,0.02124 0.0841,0.07658 0.18685,0.12298 0.10277,0.0464 0.18686,0.09644 0.18686,0.11119 0,0.01475 0.0841,0.06479 0.18685,0.111189 0.10277,0.0464 0.18685,0.101743 0.18685,0.12298 0,0.02124 0.028,0.03861 0.0623,0.03861 0.0343,0 0.0623,0.02045 0.0623,0.04546 0,0.025 0.0374,0.04546 0.083,0.04546 0.0457,0 0.0831,0.01535 0.0832,0.0341 1.1e-4,0.01875 0.0842,0.07193 0.18686,0.118163 0.10268,0.04623 0.18669,0.102497 0.18669,0.125025 0,0.02254 0.028,0.04096 0.0623,0.04096 0.0342,0 0.0623,0.01535 0.0624,0.0341 1.1e-4,0.01875 0.0842,0.07193 0.18685,0.118163 0.10268,0.04623 0.1867,0.102497 0.1867,0.125026 0,0.02253 0.028,0.04096 0.0623,0.04096 0.0343,0 0.0623,0.02045 0.0623,0.04546 0,0.025 0.0374,0.04546 0.0831,0.04546 0.0457,0 0.083,0.02006 0.083,0.0446 0,0.02453 0.0467,0.05743 0.1038,0.07313 0.0571,0.01569 0.10381,0.04915 0.10381,0.07436 0,0.02521 0.0374,0.03514 0.083,0.02206 0.0457,-0.01308 0.0831,-0.0052 0.0831,0.01744 0,0.06141 0.15826,0.22306 0.21839,0.22306 0.0288,0 0.0768,0.04291 0.10668,0.09535 0.0299,0.05245 0.0648,0.08392 0.0776,0.06994 0.04,-0.04384 0.38557,0.295392 0.664,0.651877 0.14698,0.188185 0.30811,0.393574 0.35807,0.456421 0.05,0.06285 0.11408,0.165138 0.14248,0.227318 0.0506,0.110755 0.0778,0.1629 0.31377,0.602457 0.064,0.119106 0.10311,0.239888 0.087,0.268406 -0.018,0.0319 -0.0108,0.03937 0.0187,0.01941 0.0419,-0.02838 0.0523,-0.0086 0.0465,0.08821 -8.3e-4,0.0134 0.0274,0.05596 0.0627,0.09459 0.0353,0.03863 0.0535,0.08905 0.0406,0.112037 -0.013,0.02299 -0.004,0.0418 0.0191,0.0418 0.0235,0 0.032,0.03052 0.0189,0.06781 -0.0134,0.03809 0.004,0.07959 0.0402,0.09469 0.0379,0.01592 0.0537,0.05618 0.0388,0.09877 -0.0167,0.04758 -0.009,0.06078 0.0234,0.03902 0.0331,-0.02236 0.0486,0.01158 0.0486,0.106207 0,0.0765 0.0166,0.13907 0.0369,0.13907 0.0203,0 0.0492,0.0716 0.0642,0.15912 0.015,0.0875 0.0451,0.15913 0.0669,0.15913 0.0218,0 0.0396,0.0409 0.0396,0.0909 0,0.05 0.0187,0.0909 0.0415,0.0909 0.0228,0 0.0415,0.0511 0.0415,0.11366 0,0.0625 0.0166,0.11366 0.0369,0.11366 0.0203,0 0.0492,0.0716 0.0642,0.15912 0.015,0.0875 0.0451,0.15912 0.0669,0.15912 0.0218,0 0.0396,0.0409 0.0396,0.0909 0,0.05 0.0187,0.0909 0.0415,0.0909 0.0228,0 0.0415,0.0307 0.0415,0.0682 0,0.0375 0.0187,0.0682 0.0415,0.0682 0.0228,0 0.0415,0.0404 0.0415,0.0897 0,0.10072 0.20703,0.60669 0.25784,0.63016 0.0181,0.008 0.0328,0.0546 0.0328,0.10291 0,0.0483 0.0178,0.12328 0.0395,0.1667 0.0217,0.0434 0.0722,0.16078 0.11207,0.2608 0.0399,0.10002 0.10621,0.21494 0.14734,0.25538 0.0411,0.0404 0.0748,0.097 0.0748,0.12579 0,0.0953 0.38443,0.4599 0.48494,0.4599 0.053,0 0.0964,0.0204 0.0964,0.0455 0,0.0567 1.31412,0.0627 1.34603,0.006 0.0336,-0.0596 0.31431,-0.0982 0.48984,-0.0675 0.0919,0.0161 0.14485,0.0465 0.12921,0.0742 -0.0165,0.0293 0.007,0.0373 0.063,0.0213 0.0599,-0.0172 0.0895,-0.005 0.0895,0.0374 0,0.0347 0.0467,0.0759 0.1038,0.0916 0.0571,0.0157 0.10381,0.0468 0.10381,0.0691 0,0.0223 0.0374,0.0405 0.0831,0.0405 0.0457,0 0.083,0.0204 0.083,0.0455 0,0.025 0.028,0.0455 0.0623,0.0455 0.0342,0 0.0623,0.0179 0.0623,0.0398 0,0.0219 0.0564,0.0521 0.12536,0.0672 0.069,0.0151 0.1659,0.0688 0.21544,0.11935 0.0496,0.0505 0.11459,0.0919 0.14454,0.0919 0.0299,0 0.0545,0.0217 0.0545,0.0482 0,0.0265 0.0187,0.0355 0.0415,0.02 0.0717,-0.0485 0.0451,0.0962 -0.0311,0.16906 -0.0845,0.0808 -0.37159,0.1905 -0.47841,0.18275 -0.0405,-0.003 -0.0627,0.0139 -0.0495,0.0374 0.0133,0.0235 -4.1e-4,0.0437 -0.0302,0.0449 -0.25127,0.01 -0.47168,0.0502 -0.48327,0.0883 -0.008,0.0253 -0.0461,0.046 -0.0853,0.046 -0.09,0 -0.29472,0.10247 -0.29515,0.14776 -1.7e-4,0.0187 -0.0373,0.0341 -0.0826,0.0341 -0.0531,0 -0.0915,0.0403 -0.10831,0.11366 -0.0143,0.0625 -0.0427,0.11365 -0.0631,0.11365 -0.0204,0 -0.037,0.0307 -0.037,0.0682 0,0.0375 0.0187,0.0682 0.0415,0.0682 0.0228,0 0.0415,0.0378 0.0415,0.0839 0,0.0967 0.12408,0.23437 0.21127,0.23437 0.0327,0 0.0827,0.0409 0.11128,0.0909 0.0285,0.05 0.0712,0.0909 0.0948,0.0909 0.0236,0 0.0934,0.0512 0.15494,0.11366 0.0616,0.0625 0.13549,0.11366 0.16427,0.11366 0.0288,0 0.0523,0.0172 0.0523,0.0383 0,0.0211 0.0654,0.0769 0.14533,0.12399 0.0799,0.0471 0.14533,0.1015 0.14533,0.12082 0,0.0193 0.0257,0.0351 0.0572,0.0351 0.0315,0 0.0821,0.0328 0.11248,0.0729 0.0304,0.0401 0.0934,0.0912 0.14003,0.11355 0.12777,0.0612 0.24197,0.14545 0.31742,0.23406 0.0373,0.0438 0.0844,0.0796 0.10481,0.0796 0.0204,0 0.0875,0.0511 0.14903,0.11366 0.0616,0.0625 0.12344,0.11365 0.13749,0.11365 0.014,0 0.0537,0.0309 0.0882,0.0686 0.0345,0.0377 0.0798,0.057 0.10084,0.0428 0.021,-0.0142 0.0382,-0.003 0.0382,0.025 0,0.028 0.0166,0.0396 0.0368,0.0259 0.0203,-0.0137 0.0599,0.006 0.0881,0.0428 0.0282,0.0372 0.0391,0.0677 0.0242,0.0677 -0.0149,0 0.0978,0.13466 0.25031,0.29925 0.26831,0.28948 0.47249,0.57196 0.47249,0.65371 0,0.0218 0.017,0.0465 0.0379,0.0548 0.0208,0.008 0.0938,0.13356 0.16212,0.27828 0.0687,0.14557 0.13381,0.23698 0.14568,0.20459 0.0223,-0.0609 0.0442,0.0728 0.0302,0.18471 -0.004,0.0338 0.0122,0.0479 0.0366,0.0314 0.0421,-0.0285 0.0633,0.061 0.0464,0.1959 -0.004,0.0344 0.0126,0.0477 0.0383,0.0303 0.0315,-0.0213 0.0378,0.009 0.0202,0.0977 -0.0197,0.0986 -0.0154,0.11285 0.0185,0.0606 0.0375,-0.0578 0.0451,-0.0543 0.0497,0.0227 0.003,0.05 0.002,0.12897 -0.003,0.17546 -0.005,0.0505 0.01,0.0723 0.0367,0.0542 0.0428,-0.029 0.0641,0.0596 0.047,0.19549 -0.004,0.0338 0.0122,0.0479 0.0366,0.0314 0.0439,-0.0297 0.0616,0.0547 0.0457,0.21904 -0.005,0.0522 0.01,0.0725 0.0384,0.053 0.0321,-0.0217 0.0382,0.005 0.0197,0.0855 -0.0188,0.0821 -0.008,0.12482 0.0353,0.14313 0.039,0.0164 0.0538,0.061 0.0397,0.11983 -0.0138,0.0579 0.002,0.10889 0.0422,0.13335 0.0412,0.0252 0.0561,0.0752 0.0412,0.13775 -0.0145,0.0606 -0.007,0.0872 0.019,0.0695 0.0257,-0.0174 0.0524,0.0633 0.0677,0.20536 0.0139,0.12873 0.0445,0.25506 0.0679,0.28073 0.0234,0.0257 0.0426,0.0937 0.0426,0.15124 0,0.0575 0.0187,0.10456 0.0415,0.10456 0.0228,0 0.0415,0.0499 0.0415,0.11098 0,0.061 0.0165,0.12216 0.0367,0.13583 0.0202,0.0137 0.0493,0.1167 0.0647,0.22894 0.0154,0.11225 0.0456,0.216 0.0671,0.23056 0.0215,0.0146 0.0391,0.0764 0.0391,0.13745 0,0.061 0.0187,0.11098 0.0415,0.11098 0.0228,0 0.0415,0.0614 0.0415,0.13639 0,0.075 0.0166,0.13639 0.0368,0.13639 0.0203,0 0.0494,0.0916 0.0647,0.20353 0.0153,0.11194 0.0455,0.21544 0.067,0.23 0.0215,0.0146 0.0391,0.0752 0.0391,0.13477 0,0.0596 0.0187,0.12093 0.0415,0.13639 0.0228,0.0155 0.0415,0.078 0.0415,0.13907 0,0.061 0.0144,0.11098 0.0321,0.11098 0.0176,0 0.0509,0.0889 0.0739,0.19746 0.0314,0.148 0.029,0.21064 -0.01,0.25005 -0.0623,0.0637 -0.17807,0.0669 -0.26253,0.007 z"
       id="path849-0" />
  </g>
</svg>
