<?xml version="1.0" encoding="UTF-8" standalone="no"?>
<svg
   xmlns:dc="http://purl.org/dc/elements/1.1/"
   xmlns:cc="http://creativecommons.org/ns#"
   xmlns:rdf="http://www.w3.org/1999/02/22-rdf-syntax-ns#"
   xmlns:svg="http://www.w3.org/2000/svg"
   xmlns="http://www.w3.org/2000/svg"
   xmlns:sodipodi="http://sodipodi.sourceforge.net/DTD/sodipodi-0.dtd"
   xmlns:inkscape="http://www.inkscape.org/namespaces/inkscape"
   width="210mm"
   height="297mm"
   viewBox="0 0 210 297"
   version="1.1"
   id="svg851"
   inkscape:version="1.0.1 (3bc2e813f5, 2020-09-07)"
   sodipodi:docname="name.svg">
  <defs
     id="defs845">
    <inkscape:path-effect
       effect="bspline"
       id="path-effect1416"
       is_visible="true"
       lpeversion="1"
       weight="33.333333"
       steps="2"
       helper_size="0"
       apply_no_weight="true"
       apply_with_weight="true"
       only_selected="false" />
    <inkscape:path-effect
       effect="bspline"
       id="path-effect1420"
       is_visible="true"
       lpeversion="1"
       weight="33.333333"
       steps="2"
       helper_size="0"
       apply_no_weight="true"
       apply_with_weight="true"
       only_selected="false" />
    <inkscape:path-effect
       effect="bspline"
       id="path-effect1432"
       is_visible="true"
       lpeversion="1"
       weight="33.333333"
       steps="2"
       helper_size="0"
       apply_no_weight="true"
       apply_with_weight="true"
       only_selected="false" />
    <inkscape:path-effect
       effect="bspline"
       id="path-effect1428"
       is_visible="true"
       lpeversion="1"
       weight="33.333333"
       steps="2"
       helper_size="0"
       apply_no_weight="true"
       apply_with_weight="true"
       only_selected="false" />
    <inkscape:path-effect
       effect="bspline"
       id="path-effect1424"
       is_visible="true"
       lpeversion="1"
       weight="33.333333"
       steps="2"
       helper_size="0"
       apply_no_weight="true"
       apply_with_weight="true"
       only_selected="false" />
    <inkscape:path-effect
       effect="bspline"
       id="path-effect1436"
       is_visible="true"
       lpeversion="1"
       weight="33.333333"
       steps="2"
       helper_size="0"
       apply_no_weight="true"
       apply_with_weight="true"
       only_selected="false" />
    <inkscape:path-effect
       effect="bspline"
       id="path-effect1440"
       is_visible="true"
       lpeversion="1"
       weight="33.333333"
       steps="2"
       helper_size="0"
       apply_no_weight="true"
       apply_with_weight="true"
       only_selected="false" />
    <inkscape:path-effect
       effect="bspline"
       id="path-effect1444"
       is_visible="true"
       lpeversion="1"
       weight="33.333333"
       steps="2"
       helper_size="0"
       apply_no_weight="true"
       apply_with_weight="true"
       only_selected="false" />
  </defs>
  <sodipodi:namedview
     id="base"
     pagecolor="#ffffff"
     bordercolor="#666666"
     borderopacity="1.0"
     inkscape:pageopacity="0.0"
     inkscape:pageshadow="2"
     inkscape:zoom="0.35"
     inkscape:cx="385.63193"
     inkscape:cy="560.50144"
     inkscape:document-units="mm"
     inkscape:current-layer="layer1"
     inkscape:document-rotation="0"
     showgrid="false"
     inkscape:window-width="1366"
     inkscape:window-height="705"
     inkscape:window-x="-8"
     inkscape:window-y="-8"
     inkscape:window-maximized="1" />
  <metadata
     id="metadata848">
    <rdf:RDF>
      <cc:Work
         rdf:about="">
        <dc:format>image/svg+xml</dc:format>
        <dc:type
           rdf:resource="http://purl.org/dc/dcmitype/StillImage" />
        <dc:title></dc:title>
      </cc:Work>
    </rdf:RDF>
  </metadata>
  <g
     inkscape:label="Layer 1"
     inkscape:groupmode="layer"
     id="layer1">
    <path
       style="fill:#000000;stroke:#000000;stroke-width:0.264583px;stroke-linecap:butt;stroke-linejoin:miter;stroke-opacity:1"
       d="m 24.817562,71.324708 c -0.655624,0.409676 -2.212961,0.327713 -3.647448,-1.639334 -1.434488,-1.967048 -2.745902,-5.819328 -3.688544,-10.081576 -0.942641,-4.262247 -1.516385,-8.934167 -1.393466,-13.278402 0.122918,-4.344235 0.942553,-8.360445 2.213022,-12.458774 1.270469,-4.09833 2.991703,-8.27847 4.426104,-11.393182 1.434402,-3.114713 2.581893,-5.163803 3.401547,-7.007992 0.819655,-1.844189 1.311436,-3.48346 1.762311,-4.426169 0.450875,-0.942709 0.860694,-1.188598 2.377193,-0.614721 1.5165,0.573877 4.139334,1.967258 7.581894,4.467264 3.442559,2.500007 7.704661,6.106399 11.557027,10.081773 3.852367,3.975374 7.294832,8.319437 9.876744,11.680035 2.581912,3.360598 4.303144,5.737537 5.491638,7.417835 1.188494,1.680297 1.8442,2.663859 1.762194,3.319404 -0.08201,0.655545 -0.901641,0.983399 -2.049082,0.983457 -1.14744,5.9e-5 -2.622782,-0.327795 -4.180138,-1.024444 -1.557355,-0.69665 -3.196623,-1.762174 -4.99988,-3.032638 -1.803257,-1.270463 -3.770377,-2.745804 -5.286782,-4.221151 -1.516405,-1.475347 -2.581934,-2.950693 -3.606521,-4.508039 -1.024587,-1.557345 -2.008148,-3.196615 -2.868736,-4.303191 -0.860588,-1.106577 -1.598265,-1.680322 -3.68843,-3.934373 -2.090166,-2.254051 -5.532632,-6.1883 -7.335929,-8.114649 -1.803297,-1.926349 -1.967237,-1.844377 -2.827951,-0.819752 -0.860715,1.024625 -2.418026,2.991751 -3.565558,4.999975 -1.147533,2.008223 -1.885202,4.057304 -2.663878,5.860527 -0.778677,1.803223 -1.598309,3.360524 -2.090096,4.549082 -0.491787,1.188559 -0.655712,2.008189 -0.860622,3.360645 -0.204909,1.352457 -0.4508,3.237617 -0.655707,5.450707 -0.204908,2.21309 -0.368834,4.75396 -0.409802,6.967049 -0.04097,2.21309 0.041,4.09825 0.450867,6.352339 0.409872,2.254089 1.147544,4.876919 2.049216,7.130978 0.901672,2.254059 1.967191,4.139212 2.62287,5.532631 0.655678,1.39342 0.901567,2.29501 0.245943,2.704686 z"
       id="path1414"
       inkscape:path-effect="#path-effect1416"
       inkscape:original-d="m 25.718995,71.816333 c -1.55707,-0.0817 -3.114407,-0.16366 -4.67201,-0.24589 -1.311203,-3.85217 -2.622618,-7.70445 -3.934325,-11.55708 -0.573503,-4.67184 -1.147246,-9.34376 -1.721265,-14.01603 0.819931,-4.01611 1.639565,-8.03232 2.458953,-12.04887 1.721564,-4.18004 3.442798,-8.36018 5.163801,-12.54066 1.147797,-2.0489 2.295287,-4.09799 3.442534,-6.14738 0.492064,-1.63907 0.983845,-3.27834 1.475372,-4.91791 0.410096,-0.24563 0.819914,-0.4915197 1.229476,-0.7376797 2.623198,1.3936997 5.246032,2.7870797 7.868648,4.1802197 4.262535,3.6068 8.524638,7.21319 12.786557,10.81939 3.442866,4.3445 6.885334,8.68856 10.327603,13.03245 1.721567,2.3773 3.442798,4.75424 5.163801,7.13096 0.655997,0.98387 1.311706,1.96743 1.967161,2.95075 -0.819401,0.32813 -1.639038,0.65598 -2.458953,0.98358 -1.475136,-0.3276 -2.950477,-0.65546 -4.426114,-0.98358 -1.63907,-1.06531 -3.278341,-2.13083 -4.917905,-3.19664 -1.966939,-1.47514 -3.934061,-2.95048 -5.901489,-4.42612 -1.065303,-1.47513 -2.130827,-2.95048 -3.196638,-4.42611 -0.983337,-1.63907 -1.966899,-3.27834 -2.950744,-4.91791 -0.737436,-0.5735 -1.475109,-1.14725 -2.213058,-1.72126 -3.442338,-3.93414 -6.884803,-7.86839 -10.327603,-11.80298 -0.163669,0.0822 -0.327594,0.1642 -0.491789,0.2459 -1.557105,1.96746 -3.114411,3.93459 -4.672013,5.90148 -0.737436,2.04944 -1.475105,4.09852 -2.213057,6.14738 -0.819401,1.55764 -1.639035,3.11494 -2.458953,4.67201 -0.163668,0.81994 -0.327596,1.63957 -0.491789,2.45896 -0.245636,1.8855 -0.491527,3.77066 -0.737687,5.65559 -0.163669,2.54123 -0.327596,5.0821 -0.491789,7.62275 0.08223,1.8855 0.164193,3.77066 0.245893,5.65559 0.737965,2.62321 1.475637,5.24604 2.21306,7.86865 1.065832,1.88551 2.131356,3.77066 3.196638,5.6556 0.246165,0.9019 0.492056,1.80349 0.737684,2.70484 z" />
    <path
       style="fill:#000000;stroke:#000000;stroke-width:0.264583px;stroke-linecap:butt;stroke-linejoin:miter;stroke-opacity:1"
       d="m 126.18226,48.372971 c 0.40587,0.376672 1.56503,0.376672 2.78207,-8.6e-5 1.21704,-0.376759 2.4921,-1.130204 3.79624,-1.593861 1.30414,-0.463658 2.63714,-0.637526 5.12927,-2.521185 2.49212,-1.883659 6.14341,-5.476991 10.57727,-9.244321 4.43387,-3.767329 9.64999,-7.708399 13.7361,-10.374495 4.08611,-2.666097 7.04191,-4.05706 9.21541,-4.810499 2.17351,-0.75344 3.56448,-0.869354 4.23085,-0.86929 0.66637,6.4e-5 0.60841,0.11598 1.53592,1.130343 0.9275,1.014363 2.84008,2.926944 4.17307,4.665728 1.33298,1.738784 2.08643,3.303622 2.81088,5.303194 0.72445,1.999573 1.41993,4.433765 2.11544,6.723136 0.69552,2.289371 1.391,4.433771 1.59377,6.230429 0.20278,1.796658 -0.087,3.245577 0.11592,5.187254 0.20293,1.941676 0.89841,4.375866 1.07222,6.810084 0.17381,2.434218 -0.17393,4.868408 -0.60863,6.491164 -0.43469,1.622757 -0.9563,2.434155 -0.89821,3.274674 0.0581,0.840518 0.69562,1.709868 1.13024,2.550277 0.43463,0.840408 0.66646,1.651806 1.07211,1.680637 0.40565,0.02883 0.98522,-0.724609 1.62277,-3.535532 0.63754,-2.810922 1.33302,-7.679302 1.15918,-13.098402 -0.17384,-5.4191 -1.21706,-11.38866 -2.31825,-16.083291 -1.10119,-4.694632 -2.26033,-8.114092 -3.56437,-11.214877 -1.30404,-3.100785 -2.75297,-5.882719 -3.9701,-8.230039 -1.21712,-2.347321 -2.20239,-4.259898 -2.8109,-5.332151 -0.60852,-1.072254 -0.84034,-1.304079 -2.34735,-0.782603 -1.50702,0.521476 -4.28894,1.796529 -8.69384,4.143871 -4.40489,2.347341 -10.4324,5.766797 -16.11237,9.418203 -5.67996,3.651405 -11.012,7.534518 -15.32994,11.272869 -4.31793,3.73835 -7.62148,7.331682 -9.44719,9.505172 -1.8257,2.17349 -2.17344,2.926925 -1.76758,3.303597 z"
       id="path1418"
       inkscape:path-effect="#path-effect1420"
       inkscape:original-d="m 125.4287,48.749643 c 1.15943,2.6e-4 2.31859,2.6e-4 3.47749,0 1.27536,-0.75321 2.55042,-1.50665 3.82523,-2.26037 1.33333,-0.17361 2.66633,-0.34748 3.99911,-0.52162 3.65169,-3.59321 7.30298,-7.18654 10.95407,-10.7802 5.2166,-3.94097 10.43272,-7.88204 15.64868,-11.82345 2.95619,-1.39076 5.91199,-2.78172 8.86759,-4.17298 1.39128,-0.11566 2.78225,-0.23157 4.17298,-0.34775 -0.0577,0.11618 -0.11565,0.2321 -0.17387,0.34775 1.91291,1.91292 3.82549,3.8255 5.73784,5.73785 0.75374,1.56516 1.50718,3.13 2.26037,4.6946 0.69577,2.43455 1.39126,4.86874 2.08649,7.30272 0.69578,2.14476 1.39126,4.28916 2.08649,6.43334 -0.28953,1.44925 -0.57931,2.89817 -0.86937,4.34686 0.69578,2.43455 1.39126,4.86874 2.08649,7.30272 -0.34749,2.43455 -0.69523,4.86874 -1.04325,7.30272 -0.52136,0.81169 -1.04297,1.62309 -1.56486,2.43423 0.63782,0.86966 1.27534,1.73901 1.91261,2.60812 0.23211,0.81169 0.46393,1.62309 0.6955,2.43424 0.57986,-0.75321 1.15943,-1.50665 1.73874,-2.26037 0.69578,-4.86831 1.39126,-9.73669 2.08649,-14.60543 -1.043,-5.96954 -2.08622,-11.9391 -3.12973,-17.90905 -1.15892,-3.41933 -2.31806,-6.83879 -3.47749,-10.25858 -1.44871,-2.78178 -2.89764,-5.56371 -4.34685,-8.34596 -0.98505,-1.91239 -1.97031,-3.82497 -2.95586,-5.73785 -0.23158,-0.23157 -0.4634,-0.4634 -0.6955,-0.6954997 -2.78178,1.2753697 -5.56371,2.5504197 -8.34596,3.8252397 -6.0275,3.41986 -12.05502,6.83931 -18.08292,10.25858 -5.33199,3.88353 -10.66403,7.76664 -15.99643,11.64957 -3.30341,3.59373 -6.60696,7.18706 -9.91083,10.7802 -0.34749,0.75374 -0.69524,1.50717 -1.04325,2.26037 z" />
    <text
       xml:space="preserve"
       style="font-size:12.1715px;line-height:1.25;font-family:sans-serif;stroke-width:0.19018"
       x="50.602421"
       y="81.14109"
       id="text1535"
       transform="scale(0.95849238,1.0433051)"><tspan
         sodipodi:role="line"
         id="tspan1533"
         x="50.602421"
         y="81.14109"
         style="font-style:normal;font-variant:normal;font-weight:normal;font-stretch:normal;font-size:12.1715px;font-family:'Adreena Script Demo';-inkscape-font-specification:'Adreena Script Demo';stroke-width:0.19018">Arshell S. Lagarta</tspan></text>
    <path
       style="fill:#000000;stroke:#000000;stroke-width:0.240244px;stroke-linecap:butt;stroke-linejoin:miter;stroke-opacity:1"
       d="m 47.87365,102.35139 c -1.625258,0.63909 -3.88466,2.09006 -5.994516,3.88996 -2.109857,1.7999 -4.070007,3.94859 -5.612494,5.9284 -1.542488,1.97981 -2.667189,3.79056 -3.497684,5.21383 -0.830495,1.42328 -1.366733,2.45898 -1.90448,4.28268 -0.537748,1.8237 -1.076965,4.43519 -1.183001,5.761 -0.106037,1.32582 0.22077,1.36599 0.813703,0.48131 0.592932,-0.88469 1.452249,-2.69416 2.52016,-4.65604 1.067911,-1.96187 2.344336,-4.07598 4.003237,-6.27029 1.6589,-2.1943 3.700126,-4.46861 5.45827,-6.16767 1.758143,-1.69906 3.233043,-2.82274 4.58638,-3.75802 1.353337,-0.93529 2.584991,-1.68212 3.30087,-2.4838 0.715878,-0.80169 0.916096,-1.65837 0.520901,-2.17308 -0.395196,-0.51471 -1.386088,-0.68737 -3.011346,-0.0483 z"
       id="path1422"
       inkscape:path-effect="#path-effect1424"
       inkscape:original-d="m 48.507687,101.53958 c -2.259129,1.45116 -4.518526,2.90214 -6.778217,4.35292 -1.959946,2.14897 -3.920094,4.29767 -5.880564,6.44622 -1.124462,1.81102 -2.249167,3.62177 -3.374172,5.43237 -0.535977,1.03592 -1.072213,2.07162 -1.608741,3.10715 -0.538959,2.61178 -1.078176,5.22327 -1.617686,7.83463 0.327108,0.0404 0.653924,0.0805 0.980467,0.12052 0.859636,-1.80937 1.718956,-3.61884 2.578014,-5.42855 1.276754,-2.114 2.553174,-4.22812 3.829341,-6.34246 2.041594,-2.27422 4.08282,-4.54853 6.123815,-6.82308 1.475241,-1.12353 2.950139,-2.24721 4.424786,-3.3711 1.231988,-0.74668 2.463643,-1.49351 3.695044,-2.24054 0.200499,-0.85653 0.400716,-1.71321 0.600666,-2.57009 -0.990663,-0.17248 -1.981555,-0.34514 -2.972753,-0.51799 z" />
    <path
       style="fill:#000000;stroke:#000000;stroke-width:0.240244px;stroke-linecap:butt;stroke-linejoin:miter;stroke-opacity:1"
       d="m 48.985671,93.319012 c -1.788576,0.619063 -4.866293,1.698268 -8.309558,3.207107 -3.443266,1.50884 -7.251885,3.447242 -11.033294,5.787371 -3.781409,2.34013 -7.535314,5.08182 -10.432378,7.72558 -2.897063,2.64377 -4.937043,5.18939 -6.894155,8.0165 -1.957112,2.8271 -3.8311991,5.93546 -4.6910692,7.60944 -0.8598701,1.67398 -0.7056584,1.91327 0.2795965,0.8648 0.9852549,-1.04848 2.8016447,-3.38433 4.9286347,-5.89393 2.126991,-2.50961 4.564432,-5.19281 7.354917,-7.70561 2.790486,-2.51279 5.933792,-4.855 9.364127,-6.95863 3.430334,-2.10363 7.14743,-3.96855 10.172949,-5.3084 3.02552,-1.339855 5.35924,-2.154578 7.274657,-2.93602 1.915417,-0.781441 3.412454,-1.529543 4.292357,-2.175512 0.879903,-0.645969 1.142793,-1.189872 1.120127,-1.701016 -0.02267,-0.511145 -0.331084,-0.989713 -0.734998,-1.149691 -0.403913,-0.159978 -0.903337,-0.0011 -2.691913,0.618011 z"
       id="path1426"
       inkscape:path-effect="#path-effect1428"
       inkscape:original-d="m 50.274605,92.858944 c -3.077419,1.07939 -6.155134,2.1586 -9.233115,3.2376 -3.808503,1.93869 -7.617123,3.87709 -11.426111,5.815336 -3.753776,2.742 -7.507682,5.48369 -11.261948,8.22524 -2.039787,2.54593 -4.079772,5.09155 -6.12008,7.63705 -1.873885,3.10868 -3.7479775,6.21703 -5.6223866,9.32527 0.1544934,0.23948 0.3087005,0.47877 0.4626281,0.71785 1.816743,-2.33575 3.6331295,-4.6716 5.4492765,-7.00768 2.437816,-2.68312 4.875258,-5.36632 7.312464,-8.04976 3.143711,-2.34211 6.287012,-4.68433 9.430099,-7.02677 3.717528,-1.8648 7.434623,-3.72972 11.151518,-5.59487 2.334101,-0.814566 4.667823,-1.629286 7.001321,-2.444226 1.497377,-0.74794 2.994409,-1.49605 4.4912,-2.24435 0.263187,-0.54375 0.526083,-1.08765 0.788701,-1.63177 -0.308142,-0.47839 -0.616557,-0.95696 -0.925258,-1.43571 -0.499173,0.15909 -0.998586,0.31805 -1.498309,0.47679 z" />
    <path
       style="fill:#000000;stroke:#000000;stroke-width:0.240244px;stroke-linecap:butt;stroke-linejoin:miter;stroke-opacity:1"
       d="m 43.386105,86.453063 c -2.500315,0.116307 -6.898248,0.440022 -11.12114,1.107274 -4.222893,0.667252 -8.27054,1.678037 -11.257375,2.54809 -2.986834,0.870052 -4.912662,1.599337 -7.508787,3.093689 -2.596124,1.494351 -5.8622965,3.753668 -8.2832794,5.591561 -2.420983,1.837893 -3.9966161,3.254253 -4.89044926,4.229133 -0.89383317,0.97488 -1.10574024,1.50811 -0.85008431,1.5903 0.25565592,0.0822 0.97868157,-0.28652 2.69351007,-1.40618 1.7148286,-1.11965 4.4213836,-2.99016 7.1953224,-4.657548 2.7739385,-1.667389 5.6150475,-3.131555 8.5032795,-4.361176 2.888232,-1.229622 5.823361,-2.224637 8.974254,-2.938926 3.150893,-0.714288 6.517302,-1.147847 9.354286,-1.30752 2.836984,-0.159672 5.14435,-0.0455 6.987024,0.0031 1.842675,0.04856 3.220584,0.03152 4.106893,-0.317111 0.886309,-0.348628 1.28127,-1.028833 1.166494,-1.602166 C 48.341277,87.452206 47.716497,86.9856 47.102779,86.706694 46.48906,86.427789 45.88642,86.336756 43.386105,86.453063 Z"
       id="path1430"
       inkscape:path-effect="#path-effect1432"
       inkscape:original-d="m 45.283454,86.245675 c -4.397648,0.323909 -8.795581,0.647623 -13.193793,0.971144 -4.047527,1.011019 -8.095175,2.021801 -12.143183,3.032415 -1.925624,0.729505 -3.851452,1.45879 -5.777602,2.1879 -3.266019,2.25959 -6.5321895,4.51891 -9.7987063,6.77808 -1.5754129,1.416596 -3.1510453,2.832956 -4.72698662,4.249156 -0.2116354,0.53344 -0.4235437,1.06667 -0.6357365,1.59973 0.7233328,-0.36854 1.44636,-0.73725 2.16911782,-1.10616 2.7069415,-1.8704 5.4134977,-3.74091 8.1198251,-5.611646 2.8415065,-1.46404 5.6826185,-2.9282 8.5235065,-4.39259 2.935526,-0.99486 5.870653,-1.98988 8.80556,-2.985104 3.366822,-0.433387 6.733231,-0.866941 10.099425,-1.300702 2.307736,0.114366 4.615102,0.228539 6.922228,0.342519 1.378234,-0.01685 2.756143,-0.0339 4.133789,-0.05112 0.395262,-0.68005 0.790228,-1.360253 1.184914,-2.040668 -0.624528,-0.466432 -1.249302,-0.933046 -1.874381,-1.399849 -0.602392,-0.09085 -1.205033,-0.181881 -1.807977,-0.273105 z" />
    <path
       style="fill:#000000;stroke:#000000;stroke-width:0.276495px;stroke-linecap:butt;stroke-linejoin:miter;stroke-opacity:1"
       d="m 155.63448,104.96662 c 1.26524,-0.32654 3.27986,-0.2434 6.1084,0.66643 2.82854,0.90983 6.47082,2.64612 9.90315,4.87459 3.43232,2.22848 6.65453,4.9489 9.09786,7.62546 2.44334,2.67656 4.10776,5.30901 4.9696,6.81768 0.86185,1.50866 0.92123,1.8935 0.007,1.34498 -0.91382,-0.54852 -2.80105,-2.03029 -5.12746,-4.13385 -2.32641,-2.10356 -5.09182,-4.82881 -7.69573,-6.6926 -2.60392,-1.8638 -5.04626,-2.86592 -7.22244,-3.81065 -2.17618,-0.94472 -4.08606,-1.832 -5.90375,-2.30679 -1.8177,-0.47478 -3.54307,-0.53688 -4.59992,-0.89901 -1.05686,-0.36213 -1.44503,-1.02455 -1.38145,-1.72402 0.0636,-0.69948 0.5791,-1.43568 1.84434,-1.76222 z"
       id="path1434"
       inkscape:path-effect="#path-effect1436"
       inkscape:original-d="m 154.88479,104.55692 c 2.01492,0.0834 4.02954,0.16654 6.04385,0.24943 3.64274,1.73661 7.28502,3.4729 10.92708,5.20898 3.22264,2.72078 6.44484,5.44121 9.66681,8.16144 1.6648,2.63282 3.32923,5.26527 4.99338,7.89753 0.0597,0.3851 0.11907,0.76994 0.17814,1.15452 -1.88699,-1.48157 -3.77422,-2.96334 -5.66178,-4.44539 -2.76522,-2.72511 -5.53063,-5.45036 -8.2964,-8.1759 -2.44213,-1.00191 -4.88447,-2.00404 -7.32717,-3.00643 -1.90966,-0.88707 -3.81954,-1.77435 -5.72977,-2.66191 -1.72513,-0.0619 -3.4505,-0.12396 -5.17619,-0.18632 -0.3879,-0.6622 -0.77607,-1.32462 -1.16455,-1.98731 0.51584,-0.73598 1.03137,-1.47218 1.5466,-2.20864 z" />
    <path
       style="fill:#000000;stroke:#000000;stroke-width:0.276495px;stroke-linecap:butt;stroke-linejoin:miter;stroke-opacity:1"
       d="m 149.99591,95.29708 c 1.48548,-0.196371 4.45616,-0.589078 8.6202,-0.47636 4.16403,0.112719 9.52113,0.730761 14.38727,1.687307 4.86615,0.956547 9.24104,2.251469 14.22626,4.535843 4.98523,2.28438 10.5805,5.55796 14.23803,7.94866 3.65753,2.3907 5.37716,3.89833 6.0924,4.64153 0.71524,0.7432 0.42602,0.72217 -0.84291,0.0972 -1.26893,-0.62497 -3.51751,-1.85399 -7.33422,-3.79329 -3.81671,-1.93929 -9.20129,-4.58873 -14.25195,-6.37049 -5.05066,-1.78176 -9.76709,-2.69565 -14.27155,-3.34682 -4.50446,-0.651164 -8.79666,-1.039533 -12.19164,-1.172385 -3.39498,-0.132852 -5.89253,-0.01014 -7.45707,-0.326759 -1.56455,-0.316618 -2.19597,-1.072838 -2.49059,-1.684114 -0.29463,-0.611275 -0.25218,-1.07748 -0.23095,-1.310701 0.0212,-0.23322 0.0212,-0.23325 1.50672,-0.429621 z"
       id="path1438"
       inkscape:path-effect="#path-effect1440"
       inkscape:original-d="m 148.51043,95.493451 c 2.97099,-0.39248 5.94168,-0.78516 8.91206,-1.17812 5.35763,0.61832 10.71472,1.23638 16.07164,1.85417 4.37535,1.29523 8.75024,2.59015 13.12491,3.884839 5.59579,3.27398 11.19106,6.54756 16.78615,9.82094 1.72,1.50796 3.43964,3.01558 5.15902,4.52299 -0.28892,-0.0208 -0.57814,-0.0418 -0.86765,-0.0631 -2.24837,-1.22881 -4.49695,-2.45783 -6.74587,-3.68712 -5.3845,-2.64929 -10.76908,-5.29873 -16.15406,-7.94846 -4.71634,-0.91368 -9.43277,-1.82757 -14.14961,-2.741739 -4.29206,-0.38813 -8.58426,-0.77649 -12.87685,-1.16513 -2.49734,0.12296 -4.99489,0.24567 -7.49278,0.36814 -0.63115,-0.75601 -1.26257,-1.51223 -1.89431,-2.26872 0.0428,-0.46598 0.0852,-0.93219 0.12735,-1.39866 z" />
    <path
       style="fill:#000000;stroke:#000000;stroke-width:0.276495px;stroke-linecap:butt;stroke-linejoin:miter;stroke-opacity:1"
       d="m 151.06431,87.580532 c 0.91155,-0.764498 2.73462,-2.29347 5.75568,-3.84313 3.02106,-1.549661 7.2398,-3.119923 11.37031,-4.151232 4.1305,-1.03131 8.17241,-1.523641 12.6536,-1.394183 4.48118,0.129457 9.40128,0.880597 13.51819,1.985603 4.11691,1.105005 7.4304,2.563703 9.59842,3.641054 2.16801,1.077351 3.19047,1.773235 3.63753,2.262338 0.44705,0.489103 0.31905,0.771515 -0.87548,0.627511 -1.19453,-0.144004 -3.45586,-0.714397 -6.89395,-1.497263 -3.43809,-0.782866 -8.0527,-1.778138 -12.5045,-2.273279 -4.45179,-0.495142 -8.74048,-0.490059 -12.61496,-0.0236 -3.87447,0.466462 -7.33445,1.394323 -10.34589,2.449981 -3.01144,1.055658 -5.5741,2.239058 -7.56189,3.071116 -1.98779,0.832058 -3.40064,1.312722 -4.41286,1.239241 -1.01221,-0.07348 -1.62384,-0.701426 -1.92979,-1.015546 -0.30596,-0.314119 -0.30596,-0.314116 0.60559,-1.078615 z"
       id="path1442"
       inkscape:path-effect="#path-effect1444"
       inkscape:original-d="m 150.15276,88.345031 c 1.82335,-1.528701 3.64642,-3.057674 5.46919,-4.586895 4.21922,-1.570069 8.43796,-3.140337 12.65651,-4.710892 4.04238,-0.49209 8.08429,-0.984427 12.12598,-1.477023 4.92061,0.751424 9.84071,1.502565 14.7606,2.253467 3.31392,1.459006 6.62741,2.917703 9.94066,4.376178 1.0228,0.696163 2.04526,1.39205 3.06745,2.087695 -0.12772,0.282677 -0.25572,0.565092 -0.38403,0.84726 -2.26113,-0.570169 -4.52246,-1.140557 -6.78415,-1.711219 -4.61449,-0.995064 -9.2291,-1.990336 -13.84411,-2.985876 -4.28854,0.0053 -8.57723,0.01042 -12.86628,0.01525 -3.45982,0.928154 -6.9198,1.856017 -10.38015,2.78364 -2.56246,1.183707 -5.12512,2.367106 -7.68814,3.550275 -1.4126,0.480945 -2.82545,0.961598 -4.23861,1.442018 -0.61136,-0.627721 -1.22299,-1.255661 -1.83492,-1.883881 z" />
  </g>
</svg>
